<svg width="1036" height="1037" viewBox="0 0 1036 1037" fill="none" xmlns="http://www.w3.org/2000/svg">
<path d="M497.238 130.636C497.238 130.636 497.798 126.886 498.918 119.386C500.038 111.886 501.838 103.536 504.318 94.336C506.758 85.136 508.578 78.146 509.778 73.366C510.978 68.566 513.518 62.226 517.398 54.346C521.278 46.486 526.308 38.626 532.488 30.766C538.648 22.886 546.628 16.476 556.428 11.536C566.208 6.57601 576.268 3.12601 586.608 1.18601C596.948 -0.753994 607.598 -0.313987 618.558 2.50601C629.538 5.32601 639.418 9.19601 648.198 14.116C656.998 19.036 664.838 24.706 671.718 31.126C678.598 37.546 684.288 43.946 688.788 50.326C693.268 56.706 697.078 63.726 700.218 71.386C703.358 79.046 705.758 86.056 707.418 92.416C709.078 98.776 710.368 104.506 711.288 109.606C712.208 114.706 712.558 120.626 712.338 127.366C712.098 134.066 711.948 137.926 711.888 138.946C711.828 139.946 711.648 140.916 711.348 141.856C711.048 142.816 710.638 143.726 710.118 144.586C709.578 145.446 708.958 146.226 708.258 146.926C707.538 147.646 706.748 148.256 705.888 148.756C705.028 149.276 704.118 149.686 703.158 149.986C702.198 150.286 701.218 150.466 700.218 150.526C699.218 150.566 698.228 150.496 697.248 150.316C696.248 150.136 695.298 149.836 694.398 149.416C693.478 148.996 692.628 148.476 691.848 147.856C691.048 147.236 690.338 146.536 689.718 145.756C689.118 144.956 688.608 144.096 688.188 143.176C687.788 142.256 687.498 141.306 687.318 140.326C687.138 139.346 687.378 139.866 688.038 141.886C688.698 143.906 688.758 144.296 688.218 143.056C687.678 141.816 687.348 140.526 687.228 139.186C687.128 137.846 687.238 136.516 687.558 135.196C687.878 133.896 688.398 132.686 689.118 131.566C689.838 130.426 690.718 129.436 691.758 128.596C692.798 127.736 693.948 127.076 695.208 126.616C696.488 126.156 697.798 125.896 699.138 125.836C700.478 125.796 701.798 125.976 703.098 126.376C704.378 126.756 705.568 127.336 706.668 128.116C707.768 128.896 708.708 129.836 709.488 130.936C710.288 132.016 710.888 133.196 711.288 134.476C711.688 135.756 711.868 137.076 711.828 138.436C711.808 139.776 711.568 141.076 711.108 142.336C710.648 143.596 709.998 144.756 709.158 145.816C708.318 146.876 707.328 147.766 706.188 148.486C705.068 149.226 703.848 149.756 702.528 150.076C701.228 150.416 699.908 150.536 698.568 150.436C697.228 150.316 695.938 149.996 694.698 149.476C693.458 148.956 692.338 148.246 691.338 147.346C690.318 146.446 689.478 145.416 688.818 144.256C688.158 143.076 687.698 141.826 687.438 140.506C687.178 139.186 687.128 137.856 687.288 136.516C687.468 135.176 687.858 133.906 688.458 132.706C689.058 131.506 689.828 130.436 690.768 129.496C691.728 128.536 692.808 127.756 694.008 127.156C695.208 126.556 696.478 126.156 697.818 125.956C699.138 125.776 700.468 125.806 701.808 126.046C703.128 126.306 704.368 126.766 705.528 127.426C706.708 128.086 708.078 129.906 709.638 132.886C711.198 135.906 711.948 137.916 711.888 138.916C711.828 139.936 711.648 140.916 711.348 141.856C711.048 142.816 710.638 143.726 710.118 144.586C709.578 145.446 708.958 146.226 708.258 146.926C707.538 147.646 706.748 148.256 705.888 148.756C705.028 149.276 704.118 149.686 703.158 149.986C702.198 150.286 701.218 150.466 700.218 150.526C699.218 150.566 698.228 150.496 697.248 150.316C696.248 150.136 695.298 149.836 694.398 149.416C693.478 148.996 692.628 148.476 691.848 147.856C691.048 147.236 690.338 146.536 689.718 145.756C689.118 144.956 688.608 144.096 688.188 143.176C687.788 142.256 687.498 141.306 687.318 140.326C687.138 139.346 687.558 135.656 688.578 129.256C689.618 122.836 690.088 117.346 689.988 112.786C689.908 108.246 689.508 103.236 688.788 97.756C688.088 92.256 686.518 86.176 684.078 79.516C681.618 72.856 678.778 66.706 675.558 61.066C672.338 55.426 667.798 49.826 661.938 44.266C656.098 38.706 649.378 33.776 641.778 29.476C634.198 25.196 626.098 21.776 617.478 19.216C608.878 16.656 600.288 16.206 591.708 17.866C583.148 19.526 575.068 22.126 567.468 25.666C559.868 29.206 553.618 34.326 548.718 41.026C543.818 47.706 539.778 54.736 536.598 62.116C533.418 69.496 530.908 75.176 529.068 79.156C527.228 83.116 525.328 89.446 523.368 98.146C521.388 106.846 519.808 114.936 518.628 122.416C517.448 129.896 516.748 134.016 516.528 134.776C516.308 135.556 516.008 136.286 515.628 136.966C515.228 137.666 514.758 138.306 514.218 138.886C513.658 139.466 513.048 139.976 512.388 140.416C511.708 140.856 510.988 141.196 510.228 141.436C509.468 141.696 508.698 141.866 507.918 141.946C507.138 142.026 506.348 141.996 505.548 141.856C504.768 141.736 504.008 141.526 503.268 141.226C502.528 140.926 501.838 140.536 501.198 140.056C500.558 139.576 499.988 139.036 499.488 138.436C498.968 137.816 498.538 137.146 498.198 136.426C497.838 135.706 497.578 134.956 497.418 134.176C497.258 133.396 497.188 132.616 497.208 131.836C497.228 131.036 497.238 130.636 497.238 130.636Z" fill="#1E1E1E"/>
<path d="M699.533 100.471C699.533 100.471 703.863 100.731 712.523 101.251C721.183 101.751 729.783 103.021 738.323 105.061C746.843 107.101 754.513 109.411 761.333 111.991C768.133 114.571 774.533 118.071 780.533 122.491C786.513 126.911 791.353 131.491 795.053 136.231C798.773 140.991 801.593 145.921 803.513 151.021C805.433 156.121 806.783 161.481 807.563 167.101C808.323 172.721 807.483 179.091 805.043 186.211C802.583 193.311 798.273 199.781 792.113 205.621C785.933 211.461 778.233 216.291 769.013 220.111C759.773 223.931 749.863 226.821 739.283 228.781C728.683 230.761 721.013 232.361 716.273 233.581C711.533 234.801 703.543 235.441 692.303 235.501C681.043 235.561 667.403 235.811 651.383 236.251C635.343 236.711 619.253 236.991 603.113 237.091C586.993 237.191 570.833 236.941 554.633 236.341C538.453 235.741 526.663 235.421 519.263 235.381C511.863 235.321 502.903 234.291 492.383 232.291C481.883 230.271 471.443 227.631 461.063 224.371C450.703 221.111 442.443 217.991 436.283 215.011C430.143 212.031 424.273 206.471 418.673 198.331C413.073 190.191 410.583 182.221 411.203 174.421C411.823 166.621 413.973 158.941 417.653 151.381C421.333 143.821 425.973 137.301 431.573 131.821C437.173 126.341 445.223 121.571 455.723 117.511C466.223 113.471 474.593 111.241 480.833 110.821C487.093 110.401 492.383 110.011 496.703 109.651C501.043 109.291 504.773 108.941 507.893 108.601C511.013 108.281 513.373 108.231 514.973 108.451C516.593 108.651 518.123 109.101 519.563 109.801C521.023 110.521 522.333 111.451 523.493 112.591C524.633 113.711 525.573 114.991 526.313 116.431C527.033 117.871 527.513 119.391 527.753 120.991C527.973 122.611 527.933 124.211 527.633 125.791C527.353 127.391 526.813 128.901 526.013 130.321C525.233 131.721 524.243 132.971 523.043 134.071C521.843 135.151 520.503 136.021 519.023 136.681C517.543 137.321 515.993 137.711 514.373 137.851C512.753 137.991 511.163 137.871 509.603 137.491C508.023 137.111 506.553 136.491 505.193 135.631C503.813 134.771 502.613 133.711 501.593 132.451C500.573 131.191 499.773 129.801 499.193 128.281C498.633 126.781 498.323 125.221 498.263 123.601C498.223 121.981 498.433 120.391 498.893 118.831C499.353 117.291 500.053 115.861 500.993 114.541C501.933 113.241 503.053 112.111 504.353 111.151C505.673 110.191 507.103 109.471 508.643 108.991C510.183 108.511 511.763 108.291 513.383 108.331C515.003 108.351 516.573 108.641 518.093 109.201C519.613 109.741 521.013 110.511 522.293 111.511C523.553 112.531 524.623 113.711 525.503 115.051C526.383 116.411 527.023 117.871 527.423 119.431C527.823 121.011 527.963 122.601 527.843 124.201C527.723 125.821 527.353 127.381 526.733 128.881C526.093 130.361 525.233 131.711 524.153 132.931C523.093 134.131 521.863 135.141 520.463 135.961C519.043 136.761 517.543 137.321 515.963 137.641C514.363 137.941 513.573 138.091 513.593 138.091C513.593 138.091 509.953 138.001 502.673 137.821C495.393 137.621 488.993 137.641 483.473 137.881C477.933 138.141 472.053 138.881 465.833 140.101C459.633 141.321 454.523 143.551 450.503 146.791C446.483 150.031 443.113 154.051 440.393 158.851C437.673 163.671 436.373 170.651 436.493 179.791C436.613 188.931 439.013 195.041 443.693 198.121C448.373 201.221 455.573 204.211 465.293 207.091C474.993 209.971 484.653 212.221 494.273 213.841C503.873 215.461 512.373 216.431 519.773 216.751C527.153 217.071 538.793 217.371 554.693 217.651C570.593 217.951 586.523 217.841 602.483 217.321C618.423 216.801 634.433 216.021 650.513 214.981C666.593 213.961 679.643 213.101 689.663 212.401C699.663 211.701 706.983 211.071 711.623 210.511C716.263 209.951 722.973 208.551 731.753 206.311C740.513 204.091 748.143 201.311 754.643 197.971C761.123 194.611 766.203 191.501 769.883 188.641C773.563 185.761 776.183 181.281 777.743 175.201C779.303 169.101 779.103 163.001 777.143 156.901C775.163 150.821 772.243 146.061 768.383 142.621C764.523 139.181 759.833 136.291 754.313 133.951C748.813 131.611 742.613 129.731 735.713 128.311C728.833 126.891 721.083 126.431 712.463 126.931C703.843 127.451 698.993 127.641 697.913 127.501C696.833 127.361 695.783 127.101 694.763 126.721C693.723 126.341 692.753 125.831 691.853 125.191C690.953 124.571 690.143 123.851 689.423 123.031C688.703 122.211 688.083 121.321 687.563 120.361C687.063 119.381 686.683 118.361 686.423 117.301C686.163 116.241 686.033 115.171 686.033 114.091C686.033 113.011 686.163 111.941 686.423 110.881C686.683 109.801 687.063 108.781 687.563 107.821C688.083 106.861 688.703 105.971 689.423 105.151C690.143 104.331 690.953 103.611 691.853 102.991C692.773 102.351 693.743 101.841 694.763 101.461C695.783 101.081 696.833 100.821 697.913 100.681C698.993 100.541 699.533 100.471 699.533 100.471Z" fill="#1E1E1E"/>
<path d="M502.435 118.418C502.435 118.418 507.275 120.588 516.955 124.928C526.615 129.248 534.165 132.438 539.605 134.498C545.065 136.558 552.475 138.388 561.835 139.988C571.215 141.588 584.295 143.108 601.075 144.548C617.875 145.988 634.545 146.808 651.085 147.008C667.645 147.188 679.735 144.648 687.355 139.388C694.995 134.148 700.295 129.548 703.255 125.588C706.215 121.608 708.955 117.938 711.475 114.578C713.995 111.198 715.725 109.138 716.665 108.398C717.625 107.638 718.675 107.048 719.815 106.628C720.955 106.228 722.135 106.018 723.355 105.998C724.575 105.978 725.765 106.148 726.925 106.508C728.085 106.868 729.155 107.408 730.135 108.128C731.115 108.848 731.955 109.698 732.655 110.678C733.355 111.678 733.885 112.758 734.245 113.918C734.585 115.098 734.735 116.288 734.695 117.488C734.655 118.708 734.425 119.888 734.005 121.028C733.565 122.168 732.965 123.208 732.205 124.148C731.425 125.088 730.525 125.878 729.505 126.518C728.465 127.178 727.355 127.648 726.175 127.928C724.995 128.208 723.805 128.298 722.605 128.198C721.385 128.078 720.215 127.778 719.095 127.298C717.995 126.818 716.995 126.168 716.095 125.348C715.195 124.528 714.445 123.578 713.845 122.498C713.265 121.438 712.865 120.318 712.645 119.138C712.425 117.938 712.395 116.738 712.555 115.538C712.735 114.318 713.105 113.168 713.665 112.088C714.205 111.008 714.905 110.038 715.765 109.178C716.645 108.338 717.625 107.648 718.705 107.108C719.805 106.568 720.955 106.228 722.155 106.088C723.375 105.928 724.575 105.968 725.755 106.208C726.955 106.448 728.085 106.868 729.145 107.468C730.185 108.068 731.105 108.828 731.905 109.748C732.725 110.668 733.365 111.688 733.825 112.808C734.305 113.928 734.585 115.088 734.665 116.288C734.765 117.508 734.665 118.708 734.365 119.888C734.045 121.068 733.555 122.168 732.895 123.188C732.235 124.208 731.905 124.718 731.905 124.718C731.905 124.718 730.345 126.128 727.225 128.948C724.105 131.748 720.215 135.348 715.555 139.748C710.875 144.148 703.375 149.508 693.055 155.828C682.715 162.148 668.765 165.458 651.205 165.758C633.645 166.038 616.185 165.668 598.825 164.648C581.485 163.608 567.165 162.338 555.865 160.838C544.585 159.338 536.345 157.328 531.145 154.808C525.965 152.288 518.405 149.168 508.465 145.448C498.565 141.708 493.205 139.618 492.385 139.178C491.585 138.718 490.845 138.168 490.165 137.528C489.485 136.888 488.885 136.178 488.365 135.398C487.865 134.618 487.455 133.788 487.135 132.908C486.835 132.028 486.645 131.118 486.565 130.178C486.485 129.278 486.505 128.358 486.625 127.418C486.765 126.498 487.015 125.608 487.375 124.748C487.735 123.888 488.185 123.078 488.725 122.318C489.285 121.578 489.925 120.908 490.645 120.308C491.365 119.708 492.145 119.198 492.985 118.778C493.805 118.378 494.675 118.078 495.595 117.878C496.515 117.678 497.425 117.588 498.325 117.608C499.265 117.648 500.185 117.788 501.085 118.028C501.985 118.288 502.435 118.418 502.435 118.418Z" fill="#1E1E1E"/>
<path d="M523.323 237.402C523.323 237.402 523.393 240.852 523.533 247.752C523.653 254.672 523.593 264.792 523.353 278.112C523.093 291.432 522.873 308.412 522.693 329.052C522.513 349.712 522.353 371.342 522.213 393.942C522.073 416.562 521.663 440.202 520.983 464.862C520.323 489.522 519.253 511.182 517.773 529.842C516.293 548.522 515.233 562.642 514.593 572.202C513.953 581.762 513.533 590.102 513.333 597.222C513.153 604.322 512.963 608.352 512.763 609.312C512.543 610.252 512.183 611.142 511.683 611.982C511.163 612.822 510.533 613.552 509.793 614.172C509.033 614.792 508.203 615.282 507.303 615.642C506.383 616.002 505.443 616.202 504.483 616.242C503.503 616.282 502.543 616.172 501.603 615.912C500.663 615.632 499.793 615.222 498.993 614.682C498.193 614.122 497.493 613.452 496.893 612.672C496.313 611.892 495.873 611.032 495.573 610.092C495.273 609.172 495.123 608.222 495.123 607.242C495.123 606.282 495.283 605.332 495.603 604.392C495.923 603.472 496.383 602.632 496.983 601.872C497.583 601.092 498.293 600.432 499.113 599.892C499.913 599.352 500.783 598.952 501.723 598.692C502.663 598.432 503.623 598.342 504.603 598.422C505.583 598.482 506.523 598.692 507.423 599.052C508.323 599.412 509.143 599.912 509.883 600.552C510.623 601.192 511.243 601.932 511.743 602.772C512.243 603.612 512.593 604.512 512.793 605.472C512.973 606.432 513.013 607.392 512.913 608.352C512.813 609.332 512.553 610.262 512.133 611.142C511.713 612.022 511.163 612.812 510.483 613.512C509.803 614.212 509.033 614.792 508.173 615.252C507.313 615.692 506.403 615.992 505.443 616.152C504.463 616.292 503.493 616.282 502.533 616.122C501.573 615.962 500.663 615.642 499.803 615.162C498.943 614.702 498.183 614.122 497.523 613.422C496.863 612.702 496.333 611.892 495.933 610.992C495.513 610.112 495.263 609.182 495.183 608.202C495.083 607.242 495.033 606.762 495.033 606.762C495.033 606.762 495.373 603.222 496.053 596.142C496.753 589.062 497.373 580.702 497.913 571.062C498.453 561.402 499.383 547.382 500.703 529.002C502.023 510.622 502.923 489.172 503.403 464.652C503.883 440.132 504.053 416.562 503.913 393.942C503.773 371.342 503.613 349.712 503.433 329.052C503.253 308.412 503.033 291.432 502.773 278.112C502.533 264.792 502.473 254.672 502.593 247.752C502.733 240.852 502.853 236.992 502.953 236.172C503.053 235.352 503.243 234.562 503.523 233.802C503.823 233.022 504.203 232.292 504.663 231.612C505.143 230.932 505.693 230.322 506.313 229.782C506.933 229.222 507.603 228.752 508.323 228.372C509.063 227.992 509.833 227.702 510.633 227.502C511.433 227.302 512.243 227.202 513.063 227.202C513.883 227.202 514.693 227.302 515.493 227.502C516.293 227.702 517.063 227.992 517.803 228.372C518.523 228.752 519.193 229.222 519.813 229.782C520.433 230.322 520.983 230.932 521.463 231.612C521.923 232.292 522.303 233.022 522.603 233.802C522.883 234.562 523.073 235.352 523.173 236.172C523.273 236.992 523.323 237.402 523.323 237.402Z" fill="#1E1E1E"/>
<path d="M650.069 378.487C650.069 378.487 652.389 379.907 657.029 382.747C661.669 385.567 666.189 388.017 670.589 390.097C674.969 392.157 681.799 393.667 691.079 394.627C700.359 395.567 708.299 395.977 714.899 395.857C721.519 395.737 727.759 395.107 733.619 393.967C739.479 392.847 745.229 390.657 750.869 387.397C756.489 384.097 759.519 379.987 759.959 375.067C760.399 370.167 759.099 364.887 756.059 359.227C753.019 353.567 749.389 349.467 745.169 346.927C740.949 344.387 735.609 342.567 729.149 341.467C722.689 340.367 717.819 339.677 714.539 339.397C711.259 339.137 708.709 338.757 706.889 338.257C705.069 337.737 703.379 336.947 701.819 335.887C700.259 334.827 698.909 333.547 697.769 332.047C696.629 330.527 695.769 328.877 695.189 327.097C694.589 325.317 694.289 323.477 694.289 321.577C694.289 319.697 694.599 317.867 695.219 316.087C695.819 314.287 696.689 312.637 697.829 311.137C698.969 309.637 700.329 308.367 701.909 307.327C703.469 306.267 705.159 305.487 706.979 304.987C708.799 304.487 710.649 304.287 712.529 304.387C714.409 304.507 716.229 304.917 717.989 305.617C719.729 306.317 721.319 307.277 722.759 308.497C724.199 309.717 725.399 311.137 726.359 312.757C727.339 314.377 728.029 316.107 728.429 317.947C728.829 319.807 728.919 321.667 728.699 323.527C728.499 325.407 727.999 327.207 727.199 328.927C726.399 330.627 725.349 332.157 724.049 333.517C722.749 334.897 721.259 336.027 719.579 336.907C717.919 337.787 716.159 338.377 714.299 338.677C712.439 338.977 710.579 338.967 708.719 338.647C706.859 338.347 705.089 337.747 703.409 336.847C701.749 335.967 700.279 334.837 698.999 333.457C697.699 332.097 696.649 330.557 695.849 328.837C695.069 327.117 694.579 325.317 694.379 323.437C694.179 321.577 694.289 319.717 694.709 317.857C695.109 316.017 695.799 314.297 696.779 312.697C697.759 311.077 698.969 309.657 700.409 308.437C701.849 307.217 703.449 306.267 705.209 305.587C706.969 304.887 708.789 304.487 710.669 304.387C712.549 304.287 713.489 304.237 713.489 304.237C713.489 304.237 715.119 304.467 718.379 304.927C721.639 305.407 726.019 306.017 731.519 306.757C737.039 307.497 741.889 308.597 746.069 310.057C750.249 311.497 754.649 313.477 759.269 315.997C763.889 318.517 768.239 321.857 772.319 326.017C776.419 330.177 779.979 334.797 782.999 339.877C786.039 344.957 788.499 351.267 790.379 358.807C792.259 366.347 792.039 374.107 789.719 382.087C787.399 390.067 784.369 396.287 780.629 400.747C776.909 405.227 772.999 408.517 768.899 410.617C764.779 412.717 760.269 414.667 755.369 416.467C750.449 418.267 744.389 419.927 737.189 421.447C729.989 422.947 722.479 424.037 714.659 424.717C706.839 425.377 699.529 425.487 692.729 425.047C685.949 424.607 679.519 423.647 673.439 422.167C667.359 420.667 661.669 418.577 656.369 415.897C651.069 413.217 646.139 410.407 641.579 407.467C636.999 404.547 634.259 402.717 633.359 401.977C632.439 401.237 631.629 400.407 630.929 399.487C630.229 398.567 629.649 397.567 629.189 396.487C628.729 395.407 628.399 394.297 628.199 393.157C627.999 392.017 627.949 390.867 628.049 389.707C628.129 388.547 628.349 387.417 628.709 386.317C629.069 385.197 629.559 384.147 630.179 383.167C630.799 382.187 631.529 381.287 632.369 380.467C633.209 379.647 634.129 378.947 635.129 378.367C636.149 377.787 637.219 377.327 638.339 376.987C639.439 376.667 640.579 376.477 641.759 376.417C642.899 376.357 644.039 376.447 645.179 376.687C646.319 376.907 647.419 377.267 648.479 377.767C649.539 378.247 650.069 378.487 650.069 378.487Z" fill="#1E1E1E"/>
<path d="M715.321 235.054C715.321 235.054 714.811 240.514 713.791 251.434C712.791 262.374 711.711 272.534 710.551 281.914C709.391 291.274 708.811 298.484 708.811 303.544C708.791 308.584 708.821 312.994 708.901 316.774C708.981 320.554 708.871 323.104 708.571 324.424C708.251 325.744 707.741 326.984 707.041 328.144C706.321 329.284 705.441 330.284 704.401 331.144C703.341 332.004 702.191 332.674 700.951 333.154C699.691 333.654 698.381 333.924 697.021 333.964C695.681 334.024 694.361 333.864 693.061 333.484C691.761 333.104 690.551 332.524 689.431 331.744C688.331 330.964 687.381 330.034 686.581 328.954C685.781 327.854 685.171 326.664 684.751 325.384C684.331 324.104 684.131 322.784 684.151 321.424C684.171 320.064 684.411 318.744 684.871 317.464C685.311 316.204 685.951 315.034 686.791 313.954C687.631 312.894 688.611 311.994 689.731 311.254C690.871 310.514 692.091 309.974 693.391 309.634C694.711 309.274 696.041 309.144 697.381 309.244C698.741 309.344 700.041 309.654 701.281 310.174C702.521 310.694 703.651 311.394 704.671 312.274C705.691 313.174 706.541 314.204 707.221 315.364C707.901 316.544 708.371 317.794 708.631 319.114C708.911 320.434 708.971 321.764 708.811 323.104C708.631 324.464 708.251 325.754 707.671 326.974C707.091 328.194 706.331 329.284 705.391 330.244C704.431 331.204 703.361 331.994 702.181 332.614C700.981 333.234 699.711 333.644 698.371 333.844C697.031 334.044 695.691 334.024 694.351 333.784C693.031 333.544 691.771 333.104 690.571 332.464C689.391 331.804 688.341 330.974 687.421 329.974C686.501 328.974 685.771 327.864 685.231 326.644C684.671 325.404 684.331 324.104 684.211 322.744C684.091 321.404 684.031 320.734 684.031 320.734C684.031 320.734 684.321 318.864 684.901 315.124C685.501 311.384 686.151 306.944 686.851 301.804C687.531 296.664 688.121 289.524 688.621 280.384C689.101 271.224 689.411 261.154 689.551 250.174C689.691 239.214 689.851 233.224 690.031 232.204C690.211 231.204 690.511 230.234 690.931 229.294C691.331 228.334 691.851 227.454 692.491 226.654C693.111 225.834 693.821 225.104 694.621 224.464C695.441 223.824 696.321 223.284 697.261 222.844C698.181 222.424 699.151 222.114 700.171 221.914C701.171 221.714 702.181 221.644 703.201 221.704C704.221 221.764 705.221 221.944 706.201 222.244C707.201 222.544 708.141 222.954 709.021 223.474C709.901 223.994 710.711 224.614 711.451 225.334C712.191 226.074 712.831 226.874 713.371 227.734C713.911 228.614 714.331 229.544 714.631 230.524C714.951 231.504 715.141 232.514 715.201 233.554C715.281 234.554 715.321 235.054 715.321 235.054Z" fill="#1E1E1E"/>
<path d="M702.331 414.849C702.331 414.849 702.451 417.439 702.691 422.619C702.951 427.799 702.871 434.669 702.451 443.229C702.031 451.769 701.791 463.069 701.731 477.129C701.671 491.209 701.211 505.599 700.351 520.299C699.471 534.999 698.801 550.009 698.341 565.329C697.881 580.669 697.521 594.199 697.261 605.919C697.001 617.619 697.041 626.259 697.381 631.839C697.721 637.399 698.071 642.239 698.431 646.359C698.791 650.479 698.871 653.149 698.671 654.369C698.451 655.589 698.051 656.739 697.471 657.819C696.871 658.919 696.121 659.889 695.221 660.729C694.321 661.569 693.301 662.249 692.161 662.769C691.061 663.269 689.891 663.579 688.651 663.699C687.411 663.839 686.191 663.769 684.991 663.489C683.791 663.209 682.661 662.749 681.601 662.109C680.541 661.449 679.611 660.649 678.811 659.709C678.031 658.749 677.411 657.689 676.951 656.529C676.511 655.389 676.261 654.199 676.201 652.959C676.141 651.719 676.281 650.499 676.621 649.299C676.961 648.119 677.481 647.019 678.181 645.999C678.881 644.979 679.731 644.099 680.731 643.359C681.731 642.619 682.821 642.059 684.001 641.679C685.161 641.279 686.361 641.089 687.601 641.109C688.841 641.109 690.041 641.309 691.201 641.709C692.361 642.129 693.431 642.719 694.411 643.479C695.391 644.219 696.231 645.109 696.931 646.149C697.611 647.189 698.111 648.299 698.431 649.479C698.751 650.679 698.871 651.899 698.791 653.139C698.711 654.379 698.441 655.569 697.981 656.709C697.521 657.869 696.881 658.909 696.061 659.829C695.261 660.769 694.321 661.559 693.241 662.199C692.181 662.819 691.051 663.259 689.851 663.519C688.651 663.779 687.431 663.839 686.191 663.699C684.971 663.539 683.801 663.199 682.681 662.679C681.561 662.159 680.551 661.469 679.651 660.609C678.771 659.749 678.041 658.769 677.461 657.669C676.881 656.569 676.501 655.409 676.321 654.189C676.121 652.949 676.021 652.329 676.021 652.329C676.021 652.329 676.241 650.279 676.681 646.179C677.101 642.059 677.531 637.219 677.971 631.659C678.391 626.099 678.571 617.439 678.511 605.679C678.471 593.919 678.461 580.289 678.481 564.789C678.521 549.289 678.681 534.319 678.961 519.879C679.241 505.459 679.351 491.209 679.291 477.129C679.231 463.069 678.991 451.769 678.571 443.229C678.151 434.669 678.071 427.799 678.331 422.619C678.571 417.439 678.751 414.379 678.871 413.439C678.991 412.499 679.221 411.589 679.561 410.709C679.881 409.809 680.311 408.969 680.851 408.189C681.391 407.409 682.021 406.709 682.741 406.089C683.461 405.449 684.241 404.909 685.081 404.469C685.921 404.029 686.801 403.699 687.721 403.479C688.641 403.239 689.571 403.119 690.511 403.119C691.451 403.119 692.381 403.239 693.301 403.479C694.221 403.699 695.101 404.029 695.941 404.469C696.781 404.909 697.561 405.449 698.281 406.089C699.001 406.709 699.631 407.409 700.171 408.189C700.711 408.969 701.141 409.809 701.461 410.709C701.801 411.589 702.031 412.499 702.151 413.439C702.271 414.379 702.331 414.849 702.331 414.849Z" fill="#1E1E1E"/>
<path d="M480.798 550.67C480.798 550.67 475.937 549.6 466.217 547.46C456.477 545.3 449.007 543.99 443.807 543.53C438.587 543.07 432.558 542.39 425.718 541.49C418.898 540.59 411.878 539.9 404.658 539.42C397.458 538.92 390.007 538.51 382.307 538.19C374.607 537.89 367.678 537.79 361.518 537.89C355.358 537.99 348.978 538.54 342.378 539.54C335.758 540.54 330.408 541.91 326.328 543.65C322.248 545.39 317.478 547.25 312.018 549.23C306.558 551.21 300.608 553.92 294.168 557.36C287.728 560.82 280.908 565.02 273.708 569.96C266.508 574.92 261.238 579.13 257.898 582.59C254.578 586.05 251.118 590.64 247.518 596.36C243.918 602.1 240.908 607.29 238.488 611.93C236.068 616.57 234.017 622.62 232.337 630.08C230.657 637.54 229.698 645.47 229.458 653.87C229.218 662.27 229.078 668.87 229.038 673.67C228.998 678.47 229.198 683.31 229.638 688.19C230.078 693.09 232.038 699.63 235.518 707.81C239.018 715.99 243.228 723.8 248.148 731.24C253.088 738.66 257.118 744.17 260.238 747.77C263.338 751.37 266.828 755 270.708 758.66C274.568 762.34 278.898 766.11 283.698 769.97C288.478 773.85 293.298 777.46 298.158 780.8C302.998 784.14 308.238 787.36 313.878 790.46C319.498 793.56 325.358 796.35 331.458 798.83C337.578 801.31 344.398 803.82 351.918 806.36C359.438 808.88 367.658 811.36 376.578 813.8C385.478 816.22 393.948 817.98 401.988 819.08C410.048 820.2 419.308 821.34 429.768 822.5C440.228 823.66 451.638 824.51 463.998 825.05C476.358 825.61 487.608 825.46 497.748 824.6C507.888 823.74 515.478 822.88 520.518 822.02C525.558 821.16 531.578 820.06 538.578 818.72C545.578 817.4 552.777 815.69 560.177 813.59C567.577 811.47 574.488 809.06 580.908 806.36C587.328 803.68 592.428 801.31 596.208 799.25C599.988 797.21 604.207 794.69 608.867 791.69C613.507 788.71 618.568 785.46 624.048 781.94C629.508 778.4 634.188 774.26 638.088 769.52C641.988 764.76 646.058 759.78 650.298 754.58C654.518 749.38 657.868 744.05 660.348 738.59C662.828 733.13 664.917 727.14 666.617 720.62C668.297 714.1 669.868 707.14 671.328 699.74C672.788 692.34 673.668 685.97 673.968 680.63C674.248 675.27 674.358 669.16 674.298 662.3C674.258 655.44 674.378 651.3 674.658 649.88C674.938 648.48 675.428 647.16 676.128 645.92C676.848 644.68 677.737 643.59 678.797 642.65C679.877 641.69 681.078 640.93 682.398 640.37C683.698 639.81 685.068 639.48 686.508 639.38C687.928 639.28 689.328 639.4 690.708 639.74C692.108 640.1 693.408 640.67 694.608 641.45C695.808 642.23 696.848 643.18 697.728 644.3C698.628 645.42 699.317 646.65 699.797 647.99C700.277 649.33 700.538 650.72 700.578 652.16C700.598 653.58 700.398 654.98 699.978 656.36C699.558 657.72 698.928 658.98 698.088 660.14C697.248 661.3 696.237 662.29 695.057 663.11C693.897 663.93 692.628 664.55 691.248 664.97C689.888 665.39 688.487 665.57 687.047 665.51C685.627 665.47 684.248 665.2 682.908 664.7C681.568 664.2 680.338 663.5 679.218 662.6C678.118 661.68 677.187 660.62 676.427 659.42C675.667 658.2 675.117 656.9 674.777 655.52C674.437 654.12 674.328 652.71 674.448 651.29C674.568 649.87 674.918 648.5 675.498 647.18C676.078 645.88 676.847 644.7 677.807 643.64C678.767 642.58 679.868 641.7 681.108 641C682.368 640.3 683.698 639.82 685.098 639.56C686.498 639.3 687.908 639.27 689.328 639.47C690.748 639.67 692.098 640.09 693.378 640.73C694.658 641.39 695.797 642.22 696.797 643.22C697.797 644.24 698.618 645.4 699.258 646.7C699.878 647.98 700.278 649.33 700.458 650.75C700.658 652.17 700.758 652.88 700.758 652.88C700.758 652.88 700.298 656.57 699.378 663.95C698.478 671.35 697.588 677.96 696.708 683.78C695.848 689.6 694.787 696.51 693.527 704.51C692.267 712.53 690.638 720.55 688.638 728.57C686.658 736.59 683.917 744.13 680.417 751.19C676.937 758.27 672.998 764.45 668.598 769.73C664.218 775.03 659.268 780.87 653.748 787.25C648.228 793.63 642.548 798.65 636.708 802.31C630.868 805.99 625.107 809.37 619.427 812.45C613.747 815.55 608.778 817.8 604.518 819.2C600.258 820.6 594.597 822.66 587.537 825.38C580.477 828.1 572.918 830.7 564.858 833.18C556.798 835.66 548.928 837.56 541.248 838.88C533.588 840.22 527.227 840.87 522.167 840.83C517.127 840.81 509.158 841.35 498.258 842.45C487.398 843.55 475.598 843.97 462.858 843.71C450.118 843.45 438.448 842.95 427.848 842.21C417.248 841.45 407.458 840.73 398.478 840.05C389.498 839.37 380.288 838.15 370.848 836.39C361.408 834.63 352.418 832.8 343.878 830.9C335.338 828.98 327.448 826.76 320.208 824.24C312.968 821.7 305.937 818.79 299.117 815.51C292.297 812.23 286.168 808.82 280.728 805.28C275.308 801.76 269.677 797.91 263.837 793.73C257.977 789.57 252.618 785.3 247.758 780.92C242.878 776.54 238.487 772.1 234.587 767.6C230.687 763.1 227.248 758.66 224.268 754.28C221.288 749.92 218.358 745.3 215.478 740.42C212.598 735.54 210.118 730.7 208.038 725.9C205.958 721.08 203.748 715.4 201.408 708.86C199.088 702.32 197.588 695.96 196.908 689.78C196.248 683.62 195.948 678.05 196.008 673.07C196.088 668.09 196.208 663.13 196.368 658.19C196.548 653.23 196.848 648.39 197.268 643.67C197.688 638.95 198.408 633.69 199.428 627.89C200.448 622.09 201.938 616.73 203.898 611.81C205.878 606.89 208.148 601.94 210.708 596.96C213.268 591.98 215.778 587.55 218.238 583.67C220.698 579.81 223.568 576.02 226.848 572.3C230.128 568.6 234.148 564.42 238.908 559.76C243.668 555.08 248.268 551.31 252.708 548.45C257.128 545.59 261.807 542.82 266.747 540.14C271.707 537.5 277.747 534.81 284.867 532.07C292.007 529.33 298.358 527.11 303.918 525.41C309.478 523.69 315.018 522.07 320.538 520.55C326.078 519.03 332.788 517.65 340.668 516.41C348.548 515.17 355.618 514.67 361.878 514.91C368.118 515.15 375.197 515.27 383.117 515.27C391.057 515.27 398.958 515.4 406.818 515.66C414.658 515.92 422.038 516.49 428.958 517.37C435.858 518.25 442.028 519.19 447.468 520.19C452.888 521.21 460.538 522.37 470.418 523.67C480.258 524.99 485.668 525.8 486.648 526.1C487.628 526.4 488.558 526.81 489.438 527.33C490.317 527.85 491.118 528.47 491.838 529.19C492.578 529.91 493.208 530.7 493.728 531.56C494.268 532.44 494.698 533.37 495.018 534.35C495.318 535.31 495.508 536.3 495.588 537.32C495.648 538.32 495.588 539.33 495.408 540.35C495.228 541.35 494.938 542.32 494.538 543.26C494.118 544.2 493.598 545.07 492.978 545.87C492.338 546.67 491.618 547.39 490.818 548.03C490.018 548.67 489.158 549.2 488.238 549.62C487.298 550.06 486.328 550.37 485.328 550.55C484.328 550.75 483.328 550.82 482.328 550.76C481.308 550.7 480.798 550.67 480.798 550.67Z" fill="#1E1E1E"/>
<path d="M339.253 811.16C339.253 811.16 339.333 816.35 339.493 826.73C339.633 837.13 339.673 848.64 339.613 861.26C339.553 873.88 339.453 886.32 339.313 898.58C339.193 910.86 339.183 920.75 339.283 928.25C339.383 935.75 340.673 941.53 343.153 945.59C345.633 949.67 349.583 953.31 355.003 956.51C360.423 959.73 365.673 962.66 370.753 965.3C375.833 967.92 380.333 970.17 384.253 972.05C388.173 973.93 390.683 975.31 391.783 976.19C392.883 977.07 393.813 978.11 394.573 979.31C395.333 980.49 395.893 981.76 396.253 983.12C396.593 984.5 396.703 985.89 396.583 987.29C396.483 988.69 396.153 990.04 395.593 991.34C395.033 992.64 394.283 993.82 393.343 994.88C392.403 995.92 391.323 996.79 390.103 997.49C388.883 998.19 387.573 998.68 386.173 998.96C384.793 999.22 383.403 999.26 382.003 999.08C380.603 998.88 379.273 998.47 378.013 997.85C376.753 997.23 375.623 996.42 374.623 995.42C373.623 994.42 372.803 993.29 372.163 992.03C371.543 990.77 371.133 989.44 370.933 988.04C370.733 986.64 370.773 985.25 371.053 983.87C371.313 982.49 371.783 981.18 372.463 979.94C373.163 978.72 374.033 977.64 375.073 976.7C376.133 975.74 377.303 974.98 378.583 974.42C379.883 973.86 381.233 973.52 382.633 973.4C384.053 973.28 385.443 973.39 386.803 973.73C388.183 974.07 389.463 974.62 390.643 975.38C391.843 976.14 392.883 977.07 393.763 978.17C394.643 979.27 395.333 980.48 395.833 981.8C396.313 983.12 396.573 984.49 396.613 985.91C396.653 987.31 396.473 988.69 396.073 990.05C395.653 991.39 395.033 992.63 394.213 993.77C393.393 994.93 392.413 995.92 391.273 996.74C390.133 997.56 388.883 998.18 387.523 998.6C386.183 999.02 384.813 999.21 383.413 999.17C381.993 999.15 380.623 998.89 379.303 998.39C377.963 997.91 377.303 997.67 377.323 997.67C377.323 997.67 375.503 996.49 371.863 994.13C368.223 991.75 363.823 989 358.663 985.88C353.523 982.78 347.053 978.78 339.253 973.88C331.453 968.98 326.373 964.3 324.013 959.84C321.653 955.36 320.323 950.87 320.023 946.37C319.723 941.89 319.583 935.9 319.603 928.4C319.603 920.9 319.433 911.06 319.093 898.88C318.773 886.7 318.333 874.44 317.773 862.1C317.213 849.76 316.433 838.42 315.433 828.08C314.433 817.72 313.963 812.04 314.023 811.04C314.083 810.02 314.273 809.02 314.593 808.04C314.893 807.08 315.313 806.16 315.853 805.28C316.373 804.42 317.003 803.63 317.743 802.91C318.463 802.19 319.263 801.57 320.143 801.05C321.023 800.51 321.943 800.09 322.903 799.79C323.883 799.49 324.883 799.32 325.903 799.28C326.903 799.22 327.903 799.28 328.903 799.46C329.923 799.66 330.893 799.97 331.813 800.39C332.733 800.81 333.603 801.34 334.423 801.98C335.223 802.6 335.933 803.32 336.553 804.14C337.173 804.94 337.693 805.81 338.113 806.75C338.533 807.67 338.833 808.64 339.013 809.66C339.173 810.66 339.253 811.16 339.253 811.16Z" fill="#1E1E1E"/>
<path d="M340.663 959.222C340.663 959.222 340.633 962.392 340.573 968.732C340.533 975.072 340.633 981.582 340.873 988.262C341.113 994.962 341.103 999.092 340.843 1000.65C340.583 1002.21 340.083 1003.68 339.343 1005.06C338.603 1006.46 337.663 1007.71 336.523 1008.81C335.363 1009.89 334.073 1010.76 332.653 1011.42C331.213 1012.08 329.713 1012.5 328.153 1012.68C326.593 1012.84 325.043 1012.75 323.503 1012.41C321.963 1012.07 320.513 1011.5 319.153 1010.7C317.793 1009.88 316.603 1008.87 315.583 1007.67C314.563 1006.45 313.763 1005.11 313.183 1003.65C312.603 1002.19 312.263 1000.67 312.163 999.092C312.083 997.512 312.253 995.962 312.673 994.442C313.093 992.922 313.753 991.502 314.653 990.182C315.533 988.882 316.603 987.752 317.863 986.792C319.123 985.832 320.503 985.102 322.003 984.602C323.503 984.102 325.033 983.852 326.593 983.852C328.173 983.852 329.703 984.102 331.183 984.602C332.683 985.122 334.063 985.852 335.323 986.792C336.583 987.752 337.653 988.892 338.533 990.212C339.433 991.512 340.093 992.922 340.513 994.442C340.933 995.962 341.103 997.512 341.023 999.092C340.923 1000.67 340.583 1002.19 340.003 1003.65C339.423 1005.13 338.623 1006.47 337.603 1007.67C336.563 1008.87 335.373 1009.88 334.033 1010.7C332.673 1011.5 331.223 1012.07 329.683 1012.41C328.143 1012.75 326.593 1012.84 325.033 1012.68C323.473 1012.5 321.973 1012.08 320.533 1011.42C319.093 1010.76 317.803 1009.88 316.663 1008.78C315.523 1007.7 314.583 1006.46 313.843 1005.06C313.103 1003.68 312.603 1002.21 312.343 1000.65C312.083 999.092 311.953 998.312 311.953 998.312C311.953 998.312 312.073 994.962 312.313 988.262C312.553 981.582 312.653 975.072 312.613 968.732C312.553 962.392 312.593 958.662 312.733 957.542C312.873 956.422 313.143 955.332 313.543 954.272C313.943 953.212 314.463 952.222 315.103 951.302C315.743 950.362 316.493 949.522 317.353 948.782C318.193 948.022 319.113 947.382 320.113 946.862C321.113 946.342 322.163 945.942 323.263 945.662C324.363 945.402 325.473 945.272 326.593 945.272C327.713 945.272 328.823 945.402 329.923 945.662C331.023 945.942 332.073 946.342 333.073 946.862C334.073 947.382 334.993 948.022 335.833 948.782C336.693 949.522 337.443 950.362 338.083 951.302C338.723 952.222 339.243 953.212 339.643 954.272C340.043 955.332 340.313 956.422 340.453 957.542C340.593 958.662 340.663 959.222 340.663 959.222Z" fill="#1E1E1E"/>
<path d="M334.025 965.484C334.025 965.484 331.655 968.034 326.915 973.134C322.215 978.214 317.185 982.974 311.825 987.414C306.465 991.854 301.345 995.784 296.465 999.204C291.585 1002.62 288.435 1004.63 287.015 1005.23C285.595 1005.83 284.125 1006.19 282.605 1006.31C281.065 1006.43 279.545 1006.3 278.045 1005.92C276.565 1005.54 275.175 1004.94 273.875 1004.12C272.595 1003.28 271.475 1002.26 270.515 1001.06C269.555 999.864 268.805 998.544 268.265 997.104C267.745 995.664 267.465 994.174 267.425 992.634C267.385 991.094 267.595 989.584 268.055 988.104C268.515 986.644 269.195 985.294 270.095 984.054C270.995 982.814 272.075 981.744 273.335 980.844C274.575 979.944 275.935 979.274 277.415 978.834C278.875 978.394 280.375 978.194 281.915 978.234C283.455 978.274 284.945 978.564 286.385 979.104C287.825 979.644 289.145 980.394 290.345 981.354C291.545 982.314 292.555 983.444 293.375 984.744C294.195 986.044 294.785 987.444 295.145 988.944C295.525 990.444 295.645 991.954 295.505 993.474C295.385 995.014 295.015 996.484 294.395 997.884C293.775 999.304 292.955 1000.58 291.935 1001.72C290.895 1002.86 289.705 1003.8 288.365 1004.54C287.025 1005.3 285.605 1005.82 284.105 1006.1C282.585 1006.38 281.065 1006.42 279.545 1006.22C278.025 1006 276.575 1005.55 275.195 1004.87C273.835 1004.17 272.605 1003.28 271.505 1002.2C270.425 1001.1 269.545 999.864 268.865 998.484C268.185 997.104 267.745 995.654 267.545 994.134C267.345 992.614 267.395 991.104 267.695 989.604C267.995 988.084 268.525 986.654 269.285 985.314C270.045 983.994 270.995 982.824 272.135 981.804C273.295 980.764 273.865 980.244 273.845 980.244C273.845 980.244 275.995 979.044 280.295 976.644C284.575 974.244 288.875 971.334 293.195 967.914C297.515 964.474 301.925 960.124 306.425 954.864C310.905 949.584 313.575 946.574 314.435 945.834C315.275 945.094 316.185 944.464 317.165 943.944C318.165 943.424 319.215 943.034 320.315 942.774C321.395 942.494 322.485 942.354 323.585 942.354C324.705 942.354 325.815 942.494 326.915 942.774C327.995 943.034 329.035 943.434 330.035 943.974C331.035 944.494 331.955 945.124 332.795 945.864C333.635 946.604 334.365 947.444 334.985 948.384C335.625 949.304 336.145 950.284 336.545 951.324C336.945 952.384 337.205 953.474 337.325 954.594C337.465 955.674 337.465 956.774 337.325 957.894C337.185 959.014 336.915 960.094 336.515 961.134C336.115 962.194 335.595 963.184 334.955 964.104C334.315 965.024 334.005 965.484 334.025 965.484Z" fill="#1E1E1E"/>
<path d="M607.168 818.375C607.168 818.375 606.658 825.285 605.638 839.105C604.618 852.925 603.818 866.765 603.238 880.625C602.658 894.465 602.408 904.635 602.488 911.135C602.548 917.635 602.478 924.845 602.278 932.765C602.098 940.685 602.138 947.485 602.398 953.165C602.638 958.845 602.898 964.285 603.178 969.485C603.458 974.685 603.488 977.945 603.268 979.265C603.048 980.585 602.628 981.825 602.008 982.985C601.388 984.165 600.588 985.215 599.608 986.135C598.648 987.055 597.558 987.785 596.338 988.325C595.118 988.885 593.858 989.235 592.558 989.375C591.238 989.515 589.928 989.445 588.628 989.165C587.328 988.865 586.108 988.375 584.968 987.695C583.828 986.995 582.828 986.135 581.968 985.115C581.108 984.095 580.428 982.965 579.928 981.725C579.448 980.485 579.168 979.205 579.088 977.885C579.028 976.545 579.178 975.235 579.538 973.955C579.898 972.675 580.448 971.485 581.188 970.385C581.948 969.285 582.858 968.335 583.918 967.535C584.978 966.715 586.148 966.095 587.428 965.675C588.688 965.255 589.978 965.045 591.298 965.045C592.638 965.065 593.928 965.285 595.168 965.705C596.428 966.125 597.588 966.745 598.648 967.565C599.708 968.365 600.608 969.325 601.348 970.445C602.108 971.545 602.658 972.735 602.998 974.015C603.358 975.315 603.498 976.625 603.418 977.945C603.338 979.285 603.058 980.565 602.578 981.785C602.078 983.025 601.388 984.155 600.508 985.175C599.648 986.195 598.648 987.045 597.508 987.725C596.368 988.405 595.148 988.885 593.848 989.165C592.548 989.445 591.238 989.515 589.918 989.375C588.598 989.235 587.328 988.875 586.108 988.295C584.908 987.735 583.828 986.995 582.868 986.075C581.908 985.155 581.108 984.105 580.468 982.925C579.848 981.745 579.438 980.495 579.238 979.175C579.018 977.875 578.908 977.225 578.908 977.225C578.908 977.225 579.068 974.615 579.388 969.395C579.688 964.195 579.988 958.745 580.288 953.045C580.568 947.365 580.658 940.525 580.558 932.525C580.458 924.545 580.548 917.295 580.828 910.775C581.088 904.275 581.178 893.995 581.098 879.935C581.018 865.895 581.048 851.945 581.188 838.085C581.308 824.265 581.458 816.835 581.638 815.795C581.798 814.775 582.078 813.785 582.478 812.825C582.898 811.885 583.418 810.995 584.038 810.155C584.658 809.335 585.378 808.595 586.198 807.935C586.998 807.275 587.868 806.725 588.808 806.285C589.748 805.845 590.728 805.525 591.748 805.325C592.748 805.105 593.758 805.015 594.778 805.055C595.818 805.115 596.838 805.285 597.838 805.565C598.838 805.865 599.788 806.275 600.688 806.795C601.588 807.315 602.408 807.935 603.148 808.655C603.888 809.375 604.538 810.175 605.098 811.055C605.658 811.915 606.098 812.845 606.418 813.845C606.758 814.825 606.968 815.835 607.048 816.875C607.128 817.875 607.168 818.375 607.168 818.375Z" fill="#1E1E1E"/>
<path d="M605.278 985.518C605.278 985.518 602.468 988.828 596.848 995.448C591.268 1002.07 586.608 1007.26 582.868 1011.02C579.128 1014.78 575.328 1019.12 571.468 1024.04C567.608 1028.98 565.098 1031.93 563.938 1032.89C562.798 1033.85 561.528 1034.6 560.128 1035.14C558.728 1035.68 557.288 1035.98 555.808 1036.04C554.308 1036.12 552.838 1035.95 551.398 1035.53C549.958 1035.11 548.618 1034.48 547.378 1033.64C546.158 1032.78 545.098 1031.75 544.198 1030.55C543.298 1029.35 542.618 1028.04 542.158 1026.62C541.698 1025.2 541.478 1023.74 541.498 1022.24C541.498 1020.74 541.748 1019.28 542.248 1017.86C542.748 1016.46 543.458 1015.17 544.378 1013.99C545.278 1012.79 546.358 1011.78 547.618 1010.96C548.858 1010.14 550.198 1009.53 551.638 1009.13C553.098 1008.75 554.568 1008.61 556.048 1008.71C557.548 1008.81 558.988 1009.14 560.368 1009.7C561.768 1010.26 563.028 1011.03 564.148 1012.01C565.288 1012.99 566.238 1014.13 566.998 1015.43C567.758 1016.71 568.288 1018.09 568.588 1019.57C568.888 1021.03 568.958 1022.5 568.798 1023.98C568.618 1025.46 568.208 1026.88 567.568 1028.24C566.928 1029.6 566.088 1030.81 565.048 1031.87C564.008 1032.95 562.818 1033.84 561.478 1034.54C560.158 1035.22 558.758 1035.67 557.278 1035.89C555.798 1036.13 554.318 1036.12 552.838 1035.86C551.358 1035.6 549.958 1035.11 548.638 1034.39C547.338 1033.69 546.178 1032.79 545.158 1031.69C544.138 1030.59 543.318 1029.36 542.698 1028C542.078 1026.64 541.698 1025.21 541.558 1023.71C541.418 1022.23 541.508 1020.76 541.828 1019.3C542.168 1017.84 542.728 1016.47 543.508 1015.19C544.308 1013.91 544.708 1013.27 544.708 1013.27C544.708 1013.27 548.748 1009.5 556.828 1001.96C564.928 994.398 571.358 987.018 576.118 979.818C580.878 972.618 583.638 968.618 584.398 967.818C585.178 967.018 586.028 966.318 586.948 965.718C587.888 965.138 588.888 964.668 589.948 964.308C590.988 963.948 592.058 963.728 593.158 963.648C594.258 963.548 595.348 963.588 596.428 963.768C597.528 963.948 598.588 964.258 599.608 964.698C600.628 965.118 601.578 965.668 602.458 966.348C603.338 967.008 604.138 967.768 604.858 968.628C605.558 969.488 606.138 970.418 606.598 971.418C607.078 972.418 607.428 973.458 607.648 974.538C607.868 975.618 607.958 976.698 607.918 977.778C607.878 978.898 607.708 979.988 607.408 981.048C607.088 982.108 606.658 983.118 606.118 984.078C605.558 985.038 605.278 985.518 605.278 985.518Z" fill="#1E1E1E"/>
<path d="M597.845 972.017C597.845 972.017 599.175 975.517 601.835 982.517C604.495 989.517 606.835 995.377 608.855 1000.1C610.895 1004.8 612.695 1008.83 614.255 1012.19C615.815 1015.55 616.745 1017.98 617.045 1019.48C617.365 1021 617.435 1022.52 617.255 1024.04C617.075 1025.58 616.655 1027.04 615.995 1028.42C615.335 1029.82 614.465 1031.07 613.385 1032.17C612.325 1033.27 611.105 1034.17 609.725 1034.87C608.365 1035.59 606.925 1036.06 605.405 1036.28C603.885 1036.52 602.365 1036.51 600.845 1036.25C599.325 1035.97 597.895 1035.47 596.555 1034.75C595.195 1034.01 593.995 1033.07 592.955 1031.93C591.895 1030.81 591.055 1029.55 590.435 1028.15C589.795 1026.73 589.405 1025.26 589.265 1023.74C589.105 1022.2 589.205 1020.68 589.565 1019.18C589.905 1017.68 590.485 1016.28 591.305 1014.98C592.105 1013.66 593.095 1012.51 594.275 1011.53C595.455 1010.55 596.765 1009.78 598.205 1009.22C599.645 1008.68 601.135 1008.37 602.675 1008.29C604.215 1008.23 605.725 1008.41 607.205 1008.83C608.685 1009.27 610.055 1009.93 611.315 1010.81C612.575 1011.69 613.665 1012.74 614.585 1013.96C615.505 1015.2 616.195 1016.55 616.655 1018.01C617.135 1019.49 617.365 1021 617.345 1022.54C617.345 1024.06 617.085 1025.55 616.565 1027.01C616.065 1028.47 615.335 1029.81 614.375 1031.03C613.435 1032.23 612.325 1033.26 611.045 1034.12C609.765 1034.96 608.385 1035.58 606.905 1035.98C605.405 1036.38 603.885 1036.53 602.345 1036.43C600.825 1036.33 599.345 1035.98 597.905 1035.38C596.485 1034.8 595.195 1034.01 594.035 1033.01C592.875 1031.99 591.905 1030.82 591.125 1029.5C590.345 1028.16 589.955 1027.49 589.955 1027.49C589.955 1027.49 589.405 1025.73 588.305 1022.21C587.205 1018.67 585.875 1014.58 584.315 1009.94C582.755 1005.3 580.415 999.567 577.295 992.747C574.195 985.927 572.495 981.987 572.195 980.927C571.895 979.867 571.725 978.787 571.685 977.687C571.645 976.607 571.745 975.527 571.985 974.447C572.205 973.387 572.555 972.357 573.035 971.357C573.515 970.377 574.105 969.457 574.805 968.597C575.505 967.757 576.305 967.017 577.205 966.377C578.085 965.717 579.025 965.177 580.025 964.757C581.045 964.337 582.095 964.037 583.175 963.857C584.275 963.697 585.365 963.667 586.445 963.767C587.525 963.867 588.585 964.087 589.625 964.427C590.665 964.787 591.645 965.267 592.565 965.867C593.505 966.467 594.345 967.167 595.085 967.967C595.845 968.767 596.495 969.637 597.035 970.577C597.575 971.537 597.845 972.017 597.845 972.017Z" fill="#1E1E1E"/>
<path d="M600.141 955.457C600.141 955.457 603.15 958.517 609.17 964.637C615.19 970.737 620.4 975.437 624.8 978.737C629.18 982.057 633.09 984.937 636.53 987.377C639.99 989.817 642.19 991.577 643.13 992.657C644.09 993.717 644.84 994.907 645.38 996.227C645.94 997.547 646.28 998.917 646.4 1000.34C646.5 1001.76 646.37 1003.16 646.01 1004.54C645.67 1005.94 645.11 1007.24 644.33 1008.44C643.55 1009.62 642.6 1010.66 641.48 1011.56C640.36 1012.44 639.13 1013.12 637.79 1013.6C636.43 1014.1 635.04 1014.36 633.62 1014.38C632.2 1014.42 630.8 1014.22 629.42 1013.78C628.06 1013.36 626.81 1012.73 625.67 1011.89C624.51 1011.05 623.52 1010.04 622.7 1008.86C621.86 1007.7 621.24 1006.44 620.84 1005.08C620.42 1003.7 620.24 1002.3 620.3 1000.88C620.34 999.457 620.61 998.077 621.11 996.737C621.61 995.397 622.31 994.167 623.21 993.047C624.11 991.947 625.171 991.017 626.391 990.257C627.591 989.497 628.89 988.947 630.29 988.607C631.67 988.267 633.07 988.157 634.49 988.277C635.91 988.417 637.28 988.767 638.6 989.327C639.9 989.907 641.081 990.677 642.141 991.637C643.201 992.597 644.08 993.707 644.78 994.967C645.46 996.207 645.93 997.527 646.19 998.927C646.45 1000.33 646.48 1001.74 646.28 1003.16C646.08 1004.58 645.661 1005.93 645.021 1007.21C644.381 1008.47 643.55 1009.61 642.53 1010.63C641.51 1011.63 640.36 1012.44 639.08 1013.06C637.8 1013.68 636.45 1014.09 635.03 1014.29C633.61 1014.47 632.2 1014.42 630.8 1014.14C629.4 1013.86 628.08 1013.36 626.84 1012.64C625.6 1011.94 624.98 1011.59 624.98 1011.59C624.98 1011.59 623.44 1010.15 620.36 1007.27C617.26 1004.39 613.481 1001 609.021 997.097C604.561 993.197 599 988.537 592.34 983.117C585.7 977.717 582.03 974.607 581.33 973.787C580.65 972.987 580.07 972.117 579.59 971.177C579.09 970.217 578.72 969.227 578.48 968.207C578.24 967.167 578.131 966.127 578.151 965.087C578.171 964.027 578.31 962.977 578.57 961.937C578.83 960.917 579.22 959.937 579.74 958.997C580.24 958.057 580.85 957.197 581.57 956.417C582.29 955.637 583.09 954.947 583.97 954.347C584.85 953.767 585.79 953.287 586.79 952.907C587.79 952.547 588.81 952.317 589.85 952.217C590.89 952.097 591.94 952.107 593 952.247C594.04 952.387 595.06 952.647 596.06 953.027C597.04 953.427 597.97 953.937 598.85 954.557C599.71 955.157 600.141 955.457 600.141 955.457Z" fill="#1E1E1E"/>
<path d="M387.202 652.741C387.202 652.741 383.772 652.031 376.912 650.611C370.032 649.191 364.432 648.311 360.112 647.971C355.792 647.651 350.122 648.691 343.102 651.091C336.082 653.471 331.512 657.251 329.392 662.431C327.252 667.611 328.892 670.991 334.312 672.571C339.712 674.151 345.542 675.771 351.802 677.431C358.082 679.071 363.882 680.221 369.202 680.881C374.522 681.541 378.152 682.161 380.092 682.741C382.052 683.321 383.862 684.201 385.522 685.381C387.182 686.561 388.592 687.981 389.752 689.641C390.952 691.281 391.852 693.071 392.452 695.011C393.072 696.951 393.352 698.941 393.292 700.981C393.252 703.001 392.882 704.971 392.182 706.891C391.502 708.811 390.532 710.561 389.272 712.141C388.012 713.741 386.532 715.091 384.832 716.191C383.112 717.291 381.272 718.091 379.312 718.591C377.332 719.091 375.332 719.261 373.312 719.101C371.272 718.941 369.322 718.471 367.462 717.691C365.582 716.891 363.882 715.811 362.362 714.451C360.842 713.111 359.582 711.561 358.582 709.801C357.562 708.021 356.862 706.131 356.482 704.131C356.082 702.151 356.012 700.151 356.272 698.131C356.552 696.111 357.132 694.191 358.012 692.371C358.912 690.551 360.082 688.911 361.522 687.451C362.942 686.011 364.562 684.831 366.382 683.911C368.202 683.011 370.122 682.421 372.142 682.141C374.142 681.861 376.142 681.901 378.142 682.261C380.142 682.641 382.032 683.331 383.812 684.331C385.592 685.311 387.162 686.561 388.522 688.081C389.862 689.581 390.942 691.261 391.762 693.121C392.562 694.981 393.052 696.931 393.232 698.971C393.412 700.991 393.262 702.991 392.782 704.971C392.302 706.951 391.512 708.791 390.412 710.491C389.352 712.211 388.032 713.711 386.452 714.991C384.872 716.291 383.132 717.291 381.232 717.991C379.312 718.691 377.342 719.081 375.322 719.161C373.282 719.221 372.262 719.251 372.262 719.251C372.262 719.251 370.472 718.971 366.892 718.411C363.292 717.851 357.682 716.601 350.062 714.661C342.442 712.701 335.262 710.521 328.522 708.121C321.782 705.721 316.512 703.301 312.712 700.861C308.912 698.441 305.622 695.591 302.842 692.311C300.062 689.051 297.632 684.491 295.552 678.631C293.472 672.771 292.692 667.651 293.212 663.271C293.712 658.891 294.842 654.481 296.602 650.041C298.342 645.601 300.942 641.471 304.402 637.651C307.862 633.851 311.662 630.841 315.802 628.621C319.922 626.401 324.562 624.451 329.722 622.771C334.882 621.111 340.612 619.811 346.912 618.871C353.232 617.951 358.902 617.811 363.922 618.451C368.922 619.111 374.912 619.881 381.892 620.761C388.832 621.641 392.902 622.261 394.102 622.621C395.302 622.961 396.442 623.451 397.522 624.091C398.602 624.711 399.592 625.461 400.492 626.341C401.392 627.201 402.172 628.161 402.832 629.221C403.492 630.281 404.012 631.401 404.392 632.581C404.792 633.781 405.042 635.001 405.142 636.241C405.242 637.461 405.182 638.691 404.962 639.931C404.762 641.171 404.412 642.361 403.912 643.501C403.432 644.661 402.812 645.731 402.052 646.711C401.292 647.711 400.422 648.611 399.442 649.411C398.482 650.191 397.432 650.841 396.292 651.361C395.172 651.901 393.992 652.291 392.752 652.531C391.532 652.791 390.312 652.891 389.092 652.831C387.832 652.771 387.202 652.741 387.202 652.741Z" fill="#1E1E1E"/>
<path d="M606.988 287.578C606.988 287.578 607.048 288.638 607.168 290.758C607.288 292.878 606.918 294.898 606.058 296.818C605.178 298.758 603.898 300.388 602.218 301.708C600.558 303.028 598.678 303.878 596.578 304.258C594.518 304.638 592.468 304.508 590.428 303.868C588.408 303.248 586.648 302.178 585.148 300.658C583.628 299.158 582.558 297.398 581.938 295.378C581.298 293.338 581.168 291.288 581.548 289.228C581.948 287.128 582.798 285.248 584.098 283.588C585.418 281.908 587.048 280.628 588.988 279.748C590.928 278.888 592.948 278.518 595.048 278.638C597.168 278.778 599.138 279.398 600.958 280.498C602.778 281.598 604.238 283.048 605.338 284.848L606.988 287.578Z" fill="#1E1E1E"/>
<path d="M519.585 85.9361C519.585 85.9361 522.375 86.7961 527.955 88.5161C533.535 90.2361 540.455 91.9861 548.715 93.7661C556.975 95.5661 565.355 97.3161 573.855 99.0161C582.335 100.716 591.845 102.146 602.385 103.306C612.925 104.466 621.355 105.136 627.675 105.316C633.995 105.496 641.425 105.676 649.965 105.856C658.485 106.056 666.715 105.976 674.655 105.616C682.615 105.256 688.785 104.726 693.165 104.026C697.525 103.346 701.335 102.716 704.595 102.136C707.835 101.576 710.115 101.356 711.435 101.476C712.755 101.596 714.025 101.926 715.245 102.466C716.445 103.006 717.535 103.726 718.515 104.626C719.495 105.526 720.305 106.556 720.945 107.716C721.585 108.876 722.015 110.116 722.235 111.436C722.475 112.736 722.495 114.046 722.295 115.366C722.095 116.666 721.695 117.906 721.095 119.086C720.495 120.266 719.715 121.316 718.755 122.236C717.815 123.176 716.745 123.926 715.545 124.486C714.345 125.066 713.085 125.436 711.765 125.596C710.445 125.756 709.135 125.706 707.835 125.446C706.535 125.166 705.315 124.696 704.175 124.036C703.035 123.376 702.025 122.546 701.145 121.546C700.265 120.546 699.575 119.426 699.075 118.186C698.575 116.966 698.275 115.696 698.175 114.376C698.095 113.056 698.225 111.756 698.565 110.476C698.905 109.176 699.435 107.976 700.155 106.876C700.875 105.776 701.765 104.816 702.825 103.996C703.865 103.176 705.015 102.546 706.275 102.106C707.515 101.666 708.795 101.436 710.115 101.416C711.455 101.396 712.755 101.586 714.015 101.986C715.275 102.406 716.435 103.006 717.495 103.786C718.575 104.586 719.495 105.526 720.255 106.606C721.015 107.686 721.575 108.866 721.935 110.146C722.315 111.426 722.475 112.726 722.415 114.046C722.355 115.366 722.095 116.646 721.635 117.886C721.155 119.126 720.495 120.256 719.655 121.276C718.795 122.296 717.805 123.156 716.685 123.856C715.565 124.556 714.355 125.056 713.055 125.356C711.775 125.676 711.135 125.836 711.135 125.836C711.135 125.836 709.485 125.766 706.185 125.626C702.885 125.506 698.995 125.396 694.515 125.296C690.055 125.196 683.695 125.466 675.435 126.106C667.175 126.746 658.525 127.286 649.485 127.726C640.445 128.166 632.695 128.126 626.235 127.606C619.775 127.086 610.975 126.586 599.835 126.106C588.695 125.626 578.445 124.956 569.085 124.096C559.725 123.216 550.595 121.436 541.695 118.756C532.775 116.056 525.575 113.686 520.095 111.646C514.635 109.626 511.475 108.406 510.615 107.986C509.755 107.566 508.945 107.056 508.185 106.456C507.445 105.836 506.785 105.136 506.205 104.356C505.645 103.596 505.175 102.766 504.795 101.866C504.415 100.986 504.155 100.066 504.015 99.1061C503.855 98.1661 503.815 97.2261 503.895 96.2861C503.995 95.3261 504.195 94.3861 504.495 93.4661C504.795 92.5661 505.205 91.7061 505.725 90.8861C506.245 90.0861 506.855 89.3461 507.555 88.6661C508.255 88.0061 509.025 87.4361 509.865 86.9561C510.705 86.4761 511.585 86.1061 512.505 85.8461C513.425 85.5861 514.365 85.4361 515.325 85.3961C516.265 85.3761 517.215 85.4561 518.175 85.6361C519.115 85.8361 519.585 85.9361 519.585 85.9361Z" fill="#1E1E1E"/>
</svg>
