<svg width="3041" height="1037" viewBox="0 0 3041 1037" fill="none" xmlns="http://www.w3.org/2000/svg">
<path d="M891.947 777.111C876.747 765.111 869.147 750.111 869.147 732.111C869.947 705.311 872.547 673.711 876.947 637.311C878.947 620.111 882.747 597.311 888.347 568.911C893.947 540.111 897.747 519.911 899.747 508.311C905.747 486.311 908.147 458.511 906.947 424.911C899.347 421.311 893.147 417.511 888.347 413.511C878.747 403.111 874.747 392.911 876.347 382.911C874.747 372.911 877.547 364.111 884.747 356.511C891.947 348.911 900.747 345.111 911.147 345.111C916.347 345.111 921.347 346.311 926.147 348.711C928.547 351.111 934.947 354.911 945.347 360.111C947.747 362.511 950.147 363.711 952.547 363.711C962.947 368.911 969.347 371.511 971.747 371.511C1015.75 379.511 1057.55 390.911 1097.15 405.711C1154.75 423.311 1197.75 451.111 1226.15 489.111C1226.95 491.511 1228.55 494.711 1230.95 498.711C1233.35 502.711 1234.95 505.911 1235.75 508.311C1236.95 510.711 1237.35 513.711 1236.95 517.311C1236.95 520.511 1235.75 523.711 1233.35 526.911C1224.95 542.511 1211.15 555.311 1191.95 565.311C1173.15 573.311 1143.55 579.911 1103.15 585.111C1062.75 589.911 1037.95 593.311 1028.75 595.311C1013.15 601.711 997.947 604.311 983.147 603.111C962.747 605.111 947.547 608.911 937.547 614.511C935.947 616.111 934.747 618.711 933.947 622.311C931.947 627.511 930.547 632.911 929.747 638.511C928.947 644.111 928.747 649.311 929.147 654.111C929.547 658.911 929.547 664.711 929.147 671.511C927.947 691.111 930.747 710.111 937.547 728.511C937.947 731.311 937.747 734.311 936.947 737.511C936.147 740.711 935.147 743.511 933.947 745.911C933.147 748.311 931.747 751.311 929.747 754.911C927.747 758.511 926.547 760.911 926.147 762.111C912.947 775.311 901.547 780.311 891.947 777.111ZM1013.15 546.111C1020.35 544.911 1035.55 542.511 1058.75 538.911C1081.95 535.311 1099.75 532.711 1112.15 531.111C1114.15 530.711 1118.35 529.911 1124.75 528.711C1131.15 527.511 1135.55 526.511 1137.95 525.711C1140.75 524.911 1144.55 523.911 1149.35 522.711C1154.15 521.111 1158.35 519.511 1161.95 517.911C1165.55 516.311 1169.15 514.311 1172.75 511.911C1173.15 511.511 1173.35 510.311 1173.35 508.311C1173.35 505.911 1173.15 504.511 1172.75 504.111C1170.75 501.311 1167.55 498.111 1163.15 494.511C1158.75 490.911 1154.55 487.911 1150.55 485.511C1146.55 482.711 1141.75 479.711 1136.15 476.511C1130.95 473.311 1127.95 471.311 1127.15 470.511C1113.15 468.511 1091.35 462.711 1061.75 453.111C1032.55 443.511 1012.55 437.911 1001.75 436.311C1000.15 436.311 997.147 436.111 992.747 435.711C988.747 435.311 985.147 435.311 981.947 435.711C979.147 436.111 976.947 437.511 975.347 439.911C974.147 441.511 971.947 445.711 968.747 452.511C965.947 458.911 964.347 462.311 963.947 462.711C963.547 467.911 960.547 480.511 954.947 500.511C949.747 520.111 947.347 533.711 947.747 541.311H953.747C964.547 541.311 984.347 542.911 1013.15 546.111Z" fill="black"/>
<path d="M1342.07 769.311C1329.67 770.911 1316.87 769.311 1303.67 764.511C1290.47 759.311 1280.07 752.111 1272.47 742.911C1268.87 737.311 1266.27 733.511 1264.67 731.511C1263.47 729.111 1261.47 725.511 1258.67 720.711C1255.87 715.511 1253.87 711.311 1252.67 708.111C1251.87 704.911 1250.87 701.111 1249.67 696.711C1248.47 692.311 1247.87 688.111 1247.87 684.111C1247.87 679.711 1248.47 675.311 1249.67 670.911C1250.07 657.311 1254.47 643.511 1262.87 629.511C1271.67 615.511 1280.47 604.311 1289.27 595.911C1298.07 587.511 1309.47 577.511 1323.47 565.911C1326.27 563.911 1328.27 562.311 1329.47 561.111C1346.27 547.511 1369.07 540.711 1397.87 540.711C1403.87 540.711 1422.87 542.311 1454.87 545.511C1455.67 546.311 1458.27 547.711 1462.67 549.711C1467.47 551.711 1470.87 553.911 1472.87 556.311C1474.87 558.311 1475.07 561.111 1473.47 564.711L1481.27 572.511C1490.07 577.711 1495.67 582.711 1498.07 587.511C1501.67 593.511 1508.27 612.311 1517.87 643.911C1518.67 647.111 1522.47 657.911 1529.27 676.311C1536.47 694.711 1540.47 705.711 1541.27 709.311C1551.27 727.711 1556.47 739.911 1556.87 745.911L1559.87 755.511C1559.47 757.511 1557.67 759.711 1554.47 762.111C1551.27 764.511 1549.47 765.911 1549.07 766.311C1542.27 768.711 1531.87 767.511 1517.87 762.711C1515.07 761.511 1512.47 760.111 1510.07 758.511C1508.07 756.511 1506.47 754.911 1505.27 753.711C1504.47 752.111 1502.67 749.311 1499.87 745.311C1497.47 741.311 1495.67 738.311 1494.47 736.311L1492.07 733.311C1487.67 722.911 1480.87 704.511 1471.67 678.111C1455.67 705.311 1436.27 727.511 1413.47 744.711C1390.67 761.511 1366.87 769.711 1342.07 769.311ZM1339.07 713.511C1345.87 713.511 1355.27 711.911 1367.27 708.711C1386.87 701.511 1404.67 688.911 1420.67 670.911C1436.27 649.311 1445.07 630.311 1447.07 613.911C1447.07 612.711 1447.87 608.111 1449.47 600.111C1451.07 591.711 1451.67 585.911 1451.27 582.711C1443.27 584.711 1431.67 586.311 1416.47 587.511C1401.67 588.311 1390.27 589.511 1382.27 591.111C1371.87 592.711 1361.27 597.711 1350.47 606.111C1339.67 614.111 1331.47 621.711 1325.87 628.911C1320.27 636.111 1312.67 646.311 1303.07 659.511C1296.27 667.911 1297.47 680.511 1306.67 697.311C1313.87 708.111 1324.67 713.511 1339.07 713.511Z" fill="black"/>
<path d="M1736.97 799.311C1718.57 798.511 1704.97 792.511 1696.17 781.311C1694.97 778.911 1691.37 772.711 1685.37 762.711C1679.37 752.311 1675.17 743.311 1672.77 735.711C1670.37 727.711 1669.77 719.311 1670.97 710.511C1666.17 660.911 1664.37 625.111 1665.57 603.111C1666.37 594.711 1665.77 582.311 1663.77 565.911C1661.37 556.711 1659.17 551.311 1657.17 549.711C1645.57 550.911 1636.97 553.311 1631.37 556.911C1627.77 556.911 1622.57 558.311 1615.77 561.111C1608.97 563.911 1603.17 564.911 1598.37 564.111C1595.57 562.911 1592.77 561.111 1589.97 558.711C1587.17 556.311 1584.17 553.511 1580.97 550.311C1578.17 546.711 1575.77 544.111 1573.77 542.511C1572.17 538.511 1571.57 532.911 1571.97 525.711C1572.37 518.511 1573.77 513.111 1576.17 509.511L1595.97 492.111C1613.97 491.711 1633.37 489.711 1654.17 486.111L1658.37 481.311V370.911C1667.57 360.911 1678.97 357.311 1692.57 360.111C1703.37 368.511 1709.37 378.911 1710.57 391.311C1711.77 394.511 1712.77 407.511 1713.57 430.311C1714.37 452.711 1716.17 465.311 1718.97 468.111L1730.37 471.711C1738.37 470.911 1748.57 469.511 1760.97 467.511C1773.37 465.111 1782.37 463.711 1787.97 463.311C1793.57 462.911 1803.77 463.111 1818.57 463.911L1846.17 465.111C1863.37 467.511 1869.77 477.511 1865.37 495.111C1858.57 501.911 1853.37 505.711 1849.77 506.511C1840.57 507.311 1831.17 508.511 1821.57 510.111C1811.97 511.711 1799.97 514.311 1785.57 517.911C1771.57 521.111 1762.17 523.111 1757.37 523.911C1748.17 523.911 1735.97 526.711 1720.77 532.311L1717.77 536.511C1717.77 542.511 1717.37 549.711 1716.57 558.111C1715.77 566.111 1715.37 572.911 1715.37 578.511C1715.77 583.711 1716.97 589.511 1718.97 595.911C1718.97 665.911 1722.57 709.511 1729.77 726.711C1736.17 732.711 1741.57 736.311 1745.97 737.511C1750.77 738.711 1757.17 738.311 1765.17 736.311C1766.77 735.911 1769.17 735.311 1772.37 734.511C1775.57 733.711 1777.77 733.311 1778.97 733.311C1780.17 732.911 1781.97 732.311 1784.37 731.511C1786.77 730.711 1788.37 730.111 1789.17 729.711C1790.37 729.311 1791.77 728.711 1793.37 727.911C1795.37 726.711 1796.77 725.511 1797.57 724.311C1798.77 723.111 1800.17 721.711 1801.77 720.111C1803.37 718.511 1804.77 716.711 1805.97 714.711C1807.57 712.711 1809.17 710.511 1810.77 708.111C1812.37 705.311 1814.17 702.311 1816.17 699.111C1815.77 697.111 1816.37 692.311 1817.97 684.711C1819.57 677.111 1820.77 672.311 1821.57 670.311C1825.97 657.911 1833.97 651.911 1845.57 652.311C1851.17 651.511 1855.37 652.511 1858.17 655.311C1860.97 658.111 1863.57 663.111 1865.97 670.311L1868.97 680.511C1866.17 700.111 1863.17 712.311 1859.97 717.111C1851.97 733.111 1845.77 744.111 1841.37 750.111C1837.37 756.111 1829.97 762.311 1819.17 768.711C1808.37 775.511 1791.77 782.511 1769.37 789.711C1768.17 790.111 1763.57 791.711 1755.57 794.511C1747.57 797.711 1741.37 799.311 1736.97 799.311Z" fill="black"/>
<path d="M1988.81 495.111C1982.81 496.311 1976.61 495.911 1970.21 493.911C1963.81 491.911 1955.61 487.911 1945.61 481.911C1935.61 475.911 1930.01 472.711 1928.81 472.311C1922.01 467.911 1917.41 461.911 1915.01 454.311C1913.01 446.311 1913.81 438.511 1917.41 430.911C1920.21 423.711 1925.01 418.111 1931.81 414.111C1938.61 410.111 1945.61 408.511 1952.81 409.311C1955.21 409.711 1957.01 409.711 1958.21 409.311C1959.41 408.511 1961.01 408.711 1963.01 409.911C1965.01 411.111 1966.41 411.911 1967.21 412.311C1968.41 412.311 1969.81 413.311 1971.41 415.311C1973.41 416.911 1974.81 418.111 1975.61 418.911C1976.41 419.311 1977.61 420.711 1979.21 423.111C1980.81 425.111 1981.81 426.511 1982.21 427.311C1983.01 428.111 1984.21 429.511 1985.81 431.511C1987.41 433.511 1988.41 434.911 1988.81 435.711C1990.41 439.711 1998.01 448.511 2011.61 462.111C2014.01 465.311 2015.01 470.311 2014.61 477.111C2014.21 483.911 2012.21 488.911 2008.61 492.111L1988.81 495.111ZM1993.61 768.711C1982.81 770.711 1974.01 768.311 1967.21 761.511C1960.41 749.511 1956.61 740.711 1955.81 735.111C1955.01 730.311 1953.81 719.911 1952.21 703.911C1950.61 687.511 1949.01 670.511 1947.41 652.911C1945.81 634.911 1944.81 624.311 1944.41 621.111C1943.61 610.311 1943.61 598.911 1944.41 586.911C1950.41 576.511 1960.41 572.711 1974.41 575.511C1979.61 577.911 1984.81 585.511 1990.01 598.311C1990.01 606.711 1990.61 615.511 1991.81 624.711C1993.41 633.911 1994.81 641.711 1996.01 648.111C1997.61 654.511 1999.81 662.911 2002.61 673.311C2005.41 683.711 2007.41 691.711 2008.61 697.311C2008.61 700.511 2008.21 705.711 2007.41 712.911C2007.01 719.711 2006.41 726.311 2005.61 732.711C2005.21 739.111 2005.01 742.511 2005.01 742.911C2004.61 744.111 2004.01 746.311 2003.21 749.511C2002.81 752.711 2002.21 755.311 2001.41 757.311C2001.01 759.311 2000.01 761.511 1998.41 763.911C1997.21 765.911 1995.61 767.511 1993.61 768.711Z" fill="black"/>
<path d="M2310.5 766.911C2306.5 766.911 2304.1 764.911 2303.3 760.911C2302.5 759.711 2299.7 755.311 2294.9 747.711C2290.5 739.711 2286.9 734.111 2284.1 730.911C2276.5 704.511 2271.5 679.111 2269.1 654.711C2267.9 651.911 2266.1 645.911 2263.7 636.711C2261.7 627.111 2259.7 620.511 2257.7 616.911C2256.9 613.711 2254.5 610.311 2250.5 606.711C2246.9 602.711 2243.9 600.711 2241.5 600.711C2238.3 600.711 2236.1 601.111 2234.9 601.911C2208.5 624.311 2184.5 652.111 2162.9 685.311C2162.1 686.911 2156.9 695.711 2147.3 711.711C2138.1 727.311 2131.9 738.711 2128.7 745.911C2124.3 753.111 2117.9 755.711 2109.5 753.711L2083.1 726.711V708.111C2085.1 697.711 2087.3 677.511 2089.7 647.511C2092.1 617.511 2093.7 599.711 2094.5 594.111C2094.5 592.111 2093.5 585.111 2091.5 573.111C2091.1 571.511 2090.9 568.911 2090.9 565.311C2090.9 558.911 2092.9 553.711 2096.9 549.711C2101.3 545.711 2106.7 543.911 2113.1 544.311C2125.9 544.311 2134.9 548.311 2140.1 556.311C2142.9 567.111 2144.3 581.111 2144.3 598.311C2144.3 603.911 2143.9 610.711 2143.1 618.711C2142.3 626.711 2141.9 630.911 2141.9 631.311C2143.9 629.711 2147.7 625.511 2153.3 618.711C2158.9 611.511 2164.7 604.111 2170.7 596.511C2176.7 588.911 2180.3 584.311 2181.5 582.711C2183.9 579.911 2187.3 575.311 2191.7 568.911C2196.5 562.511 2200.7 557.311 2204.3 553.311C2208.3 549.311 2213.1 545.111 2218.7 540.711C2227.1 533.911 2238.3 530.111 2252.3 529.311C2256.7 527.711 2261.1 528.111 2265.5 530.511C2270.3 532.511 2275.3 536.911 2280.5 543.711C2285.7 550.111 2288.9 554.511 2290.1 556.911C2291.7 559.311 2294.9 564.311 2299.7 571.911C2312.1 600.711 2318.3 632.111 2318.3 666.111L2329.7 715.311C2329.7 716.511 2330.9 720.511 2333.3 727.311C2336.1 734.111 2337.5 737.711 2337.5 738.111C2338.3 748.911 2335.7 756.511 2329.7 760.911C2328.5 761.311 2325.5 762.511 2320.7 764.511C2316.3 766.111 2312.9 766.911 2310.5 766.911Z" fill="black"/>
<path d="M2663.52 778.311C2660.32 778.311 2654.92 776.911 2647.32 774.111C2635.32 759.311 2624.92 740.511 2616.12 717.711C2607.32 694.511 2602.52 678.111 2601.72 668.511C2595.32 641.311 2585.92 625.911 2573.52 622.311C2562.32 627.111 2551.52 633.711 2541.12 642.111C2531.12 650.511 2523.72 657.511 2518.92 663.111C2514.52 668.711 2506.92 678.911 2496.12 693.711C2485.72 708.511 2479.12 717.711 2476.32 721.311C2469.52 739.711 2459.52 754.711 2446.32 766.311C2440.72 769.111 2435.72 770.511 2431.32 770.511C2422.12 770.511 2412.52 762.311 2402.52 745.911C2401.32 744.711 2400.72 744.111 2400.72 744.111C2400.72 742.911 2400.52 740.311 2400.12 736.311C2400.12 731.911 2400.12 728.511 2400.12 726.111C2400.12 723.311 2400.32 720.311 2400.72 717.111C2401.52 713.911 2402.72 711.511 2404.32 709.911C2405.92 696.711 2406.92 682.511 2407.32 667.311C2408.12 652.111 2408.32 639.511 2407.92 629.511C2407.52 619.111 2406.92 604.711 2406.12 586.311C2405.32 567.911 2404.72 554.911 2404.32 547.311C2405.12 525.311 2403.92 489.111 2400.72 438.711C2397.92 387.911 2397.12 350.911 2398.32 327.711L2399.52 296.511C2399.12 294.111 2399.32 292.111 2400.12 290.511C2400.92 288.511 2401.72 287.311 2402.52 286.911C2403.72 286.111 2405.32 285.511 2407.32 285.111C2409.32 284.711 2410.92 284.711 2412.12 285.111C2413.72 285.111 2415.72 285.311 2418.12 285.711C2420.52 285.711 2421.92 285.711 2422.32 285.711C2422.72 286.111 2424.52 287.911 2427.72 291.111C2430.92 294.311 2433.72 297.511 2436.12 300.711C2438.92 303.511 2440.52 306.111 2440.92 308.511C2451.72 359.711 2456.12 434.111 2454.12 531.711C2454.12 556.911 2454.92 579.311 2456.52 598.911C2458.12 618.511 2457.92 639.311 2455.92 661.311C2492.32 616.111 2527.12 583.111 2560.32 562.311C2567.52 559.511 2575.52 558.111 2584.32 558.111C2597.52 558.111 2608.32 563.111 2616.72 573.111C2630.32 587.911 2640.32 604.311 2646.72 622.311C2653.12 639.911 2658.32 661.511 2662.32 687.111C2673.92 722.711 2679.12 749.111 2677.92 766.311C2677.92 766.711 2677.52 767.711 2676.72 769.311C2675.92 770.911 2675.32 771.911 2674.92 772.311C2674.52 773.111 2673.72 774.111 2672.52 775.311C2671.72 776.511 2670.52 777.311 2668.92 777.711C2667.32 778.111 2665.52 778.311 2663.52 778.311Z" fill="black"/>
<path d="M2837.75 768.111C2817.35 763.711 2803.15 760.511 2795.15 758.511C2787.55 756.511 2779.35 752.511 2770.55 746.511C2761.75 740.111 2755.15 732.711 2750.75 724.311C2746.75 715.911 2741.55 702.911 2735.15 685.311L2738.15 621.711C2735.35 617.311 2733.95 610.911 2733.95 602.511C2733.95 594.111 2735.35 587.911 2738.15 583.911C2755.35 571.511 2777.15 557.111 2803.55 540.711C2820.35 530.711 2841.35 525.711 2866.55 525.711C2896.15 525.711 2924.55 532.111 2951.75 544.911C2979.35 557.711 3002.15 575.311 3020.15 597.711C3040.95 626.111 3045.95 652.711 3035.15 677.511C3009.55 721.511 2971.55 749.311 2921.15 760.911C2914.75 763.311 2907.55 765.111 2899.55 766.311C2891.95 767.511 2885.75 768.111 2880.95 768.111C2876.15 768.511 2868.55 768.511 2858.15 768.111C2847.75 768.111 2840.95 768.111 2837.75 768.111ZM2862.35 722.511C2878.35 722.511 2894.95 720.311 2912.15 715.911C2929.75 711.111 2945.95 703.111 2960.75 691.911C2975.55 680.311 2983.95 666.711 2985.95 651.111C2985.55 646.311 2984.75 642.111 2983.55 638.511C2982.75 634.911 2981.15 631.511 2978.75 628.311C2976.75 624.711 2974.95 622.111 2973.35 620.511C2972.15 618.911 2969.75 616.311 2966.15 612.711C2962.95 609.111 2960.75 606.711 2959.55 605.511C2925.55 586.711 2899.75 577.311 2882.15 577.311C2869.75 577.311 2860.95 578.511 2855.75 580.911C2844.55 585.311 2838.55 587.911 2837.75 588.711C2835.35 590.711 2831.55 593.511 2826.35 597.111C2821.15 600.711 2817.55 603.511 2815.55 605.511C2802.35 615.511 2795.15 625.311 2793.95 634.911C2792.75 639.711 2791.95 644.911 2791.55 650.511C2791.55 656.111 2791.55 662.311 2791.55 669.111C2791.95 675.911 2792.15 681.311 2792.15 685.311C2794.95 690.911 2799.55 697.111 2805.95 703.911C2812.35 710.311 2817.95 714.111 2822.75 715.311C2831.95 720.111 2845.15 722.511 2862.35 722.511Z" fill="black"/>
<path d="M301.238 130.636C301.238 130.636 301.798 126.886 302.918 119.386C304.038 111.886 305.838 103.536 308.318 94.336C310.758 85.136 312.578 78.146 313.778 73.366C314.978 68.566 317.518 62.226 321.398 54.346C325.278 46.486 330.308 38.626 336.488 30.766C342.648 22.886 350.628 16.476 360.428 11.536C370.208 6.57601 380.268 3.12601 390.608 1.18601C400.948 -0.753994 411.598 -0.313987 422.558 2.50601C433.538 5.32601 443.418 9.19601 452.198 14.116C460.998 19.036 468.838 24.706 475.718 31.126C482.598 37.546 488.288 43.946 492.788 50.326C497.268 56.706 501.078 63.726 504.218 71.386C507.358 79.046 509.758 86.056 511.418 92.416C513.078 98.776 514.368 104.506 515.288 109.606C516.208 114.706 516.558 120.626 516.338 127.366C516.098 134.066 515.948 137.926 515.888 138.946C515.828 139.946 515.648 140.916 515.348 141.856C515.048 142.816 514.638 143.726 514.118 144.586C513.578 145.446 512.958 146.226 512.258 146.926C511.538 147.646 510.748 148.256 509.888 148.756C509.028 149.276 508.118 149.686 507.158 149.986C506.198 150.286 505.218 150.466 504.218 150.526C503.218 150.566 502.228 150.496 501.248 150.316C500.248 150.136 499.298 149.836 498.398 149.416C497.478 148.996 496.628 148.476 495.848 147.856C495.048 147.236 494.338 146.536 493.718 145.756C493.118 144.956 492.608 144.096 492.188 143.176C491.788 142.256 491.498 141.306 491.318 140.326C491.138 139.346 491.378 139.866 492.038 141.886C492.698 143.906 492.758 144.296 492.218 143.056C491.678 141.816 491.348 140.526 491.228 139.186C491.128 137.846 491.238 136.516 491.558 135.196C491.878 133.896 492.398 132.686 493.118 131.566C493.838 130.426 494.718 129.436 495.758 128.596C496.798 127.736 497.948 127.076 499.208 126.616C500.488 126.156 501.798 125.896 503.138 125.836C504.478 125.796 505.798 125.976 507.098 126.376C508.378 126.756 509.568 127.336 510.668 128.116C511.768 128.896 512.708 129.836 513.488 130.936C514.288 132.016 514.888 133.196 515.288 134.476C515.688 135.756 515.868 137.076 515.828 138.436C515.808 139.776 515.568 141.076 515.108 142.336C514.648 143.596 513.998 144.756 513.158 145.816C512.318 146.876 511.328 147.766 510.188 148.486C509.068 149.226 507.848 149.756 506.528 150.076C505.228 150.416 503.908 150.536 502.568 150.436C501.228 150.316 499.938 149.996 498.698 149.476C497.458 148.956 496.338 148.246 495.338 147.346C494.318 146.446 493.478 145.416 492.818 144.256C492.158 143.076 491.698 141.826 491.438 140.506C491.178 139.186 491.128 137.856 491.288 136.516C491.468 135.176 491.858 133.906 492.458 132.706C493.058 131.506 493.828 130.436 494.768 129.496C495.728 128.536 496.808 127.756 498.008 127.156C499.208 126.556 500.478 126.156 501.818 125.956C503.138 125.776 504.468 125.806 505.808 126.046C507.128 126.306 508.368 126.766 509.528 127.426C510.708 128.086 512.078 129.906 513.638 132.886C515.198 135.906 515.948 137.916 515.888 138.916C515.828 139.936 515.648 140.916 515.348 141.856C515.048 142.816 514.638 143.726 514.118 144.586C513.578 145.446 512.958 146.226 512.258 146.926C511.538 147.646 510.748 148.256 509.888 148.756C509.028 149.276 508.118 149.686 507.158 149.986C506.198 150.286 505.218 150.466 504.218 150.526C503.218 150.566 502.228 150.496 501.248 150.316C500.248 150.136 499.298 149.836 498.398 149.416C497.478 148.996 496.628 148.476 495.848 147.856C495.048 147.236 494.338 146.536 493.718 145.756C493.118 144.956 492.608 144.096 492.188 143.176C491.788 142.256 491.498 141.306 491.318 140.326C491.138 139.346 491.558 135.656 492.578 129.256C493.618 122.836 494.088 117.346 493.988 112.786C493.908 108.246 493.508 103.236 492.788 97.756C492.088 92.256 490.518 86.176 488.078 79.516C485.618 72.856 482.778 66.706 479.558 61.066C476.338 55.426 471.798 49.826 465.938 44.266C460.098 38.706 453.378 33.776 445.778 29.476C438.198 25.196 430.098 21.776 421.478 19.216C412.878 16.656 404.288 16.206 395.708 17.866C387.148 19.526 379.068 22.126 371.468 25.666C363.868 29.206 357.618 34.326 352.718 41.026C347.818 47.706 343.778 54.736 340.598 62.116C337.418 69.496 334.908 75.176 333.068 79.156C331.228 83.116 329.328 89.446 327.368 98.146C325.388 106.846 323.808 114.936 322.628 122.416C321.448 129.896 320.748 134.016 320.528 134.776C320.308 135.556 320.008 136.286 319.628 136.966C319.228 137.666 318.758 138.306 318.218 138.886C317.658 139.466 317.048 139.976 316.388 140.416C315.708 140.856 314.988 141.196 314.228 141.436C313.468 141.696 312.698 141.866 311.918 141.946C311.138 142.026 310.348 141.996 309.548 141.856C308.768 141.736 308.008 141.526 307.268 141.226C306.528 140.926 305.838 140.536 305.198 140.056C304.558 139.576 303.988 139.036 303.488 138.436C302.968 137.816 302.538 137.146 302.198 136.426C301.838 135.706 301.578 134.956 301.418 134.176C301.258 133.396 301.188 132.616 301.208 131.836C301.228 131.036 301.238 130.636 301.238 130.636Z" fill="black"/>
<path d="M503.534 100.471C503.534 100.471 507.864 100.731 516.524 101.251C525.184 101.751 533.784 103.021 542.324 105.061C550.844 107.101 558.514 109.411 565.334 111.991C572.134 114.571 578.534 118.071 584.534 122.491C590.514 126.911 595.354 131.491 599.054 136.231C602.774 140.991 605.594 145.921 607.514 151.021C609.434 156.121 610.784 161.481 611.564 167.101C612.324 172.721 611.484 179.091 609.044 186.211C606.584 193.311 602.274 199.781 596.114 205.621C589.934 211.461 582.234 216.291 573.014 220.111C563.774 223.931 553.864 226.821 543.284 228.781C532.684 230.761 525.014 232.361 520.274 233.581C515.534 234.801 507.544 235.441 496.304 235.501C485.044 235.561 471.404 235.811 455.384 236.251C439.344 236.711 423.254 236.991 407.114 237.091C390.994 237.191 374.834 236.941 358.634 236.341C342.454 235.741 330.664 235.421 323.264 235.381C315.864 235.321 306.904 234.291 296.384 232.291C285.884 230.271 275.444 227.631 265.064 224.371C254.704 221.111 246.444 217.991 240.284 215.011C234.144 212.031 228.274 206.471 222.674 198.331C217.074 190.191 214.584 182.221 215.204 174.421C215.824 166.621 217.974 158.941 221.654 151.381C225.334 143.821 229.974 137.301 235.574 131.821C241.174 126.341 249.224 121.571 259.724 117.511C270.224 113.471 278.594 111.241 284.834 110.821C291.094 110.401 296.384 110.011 300.704 109.651C305.044 109.291 308.774 108.941 311.894 108.601C315.014 108.281 317.374 108.231 318.974 108.451C320.594 108.651 322.124 109.101 323.564 109.801C325.024 110.521 326.334 111.451 327.494 112.591C328.634 113.711 329.574 114.991 330.314 116.431C331.034 117.871 331.514 119.391 331.754 120.991C331.974 122.611 331.934 124.211 331.634 125.791C331.354 127.391 330.814 128.901 330.014 130.321C329.234 131.721 328.244 132.971 327.044 134.071C325.844 135.151 324.504 136.021 323.024 136.681C321.544 137.321 319.994 137.711 318.374 137.851C316.754 137.991 315.164 137.871 313.604 137.491C312.024 137.111 310.554 136.491 309.194 135.631C307.814 134.771 306.614 133.711 305.594 132.451C304.574 131.191 303.774 129.801 303.194 128.281C302.634 126.781 302.324 125.221 302.264 123.601C302.224 121.981 302.434 120.391 302.894 118.831C303.354 117.291 304.054 115.861 304.994 114.541C305.934 113.241 307.054 112.111 308.354 111.151C309.674 110.191 311.104 109.471 312.644 108.991C314.184 108.511 315.764 108.291 317.384 108.331C319.004 108.351 320.574 108.641 322.094 109.201C323.614 109.741 325.014 110.511 326.294 111.511C327.554 112.531 328.624 113.711 329.504 115.051C330.384 116.411 331.024 117.871 331.424 119.431C331.824 121.011 331.964 122.601 331.844 124.201C331.724 125.821 331.354 127.381 330.734 128.881C330.094 130.361 329.234 131.711 328.154 132.931C327.094 134.131 325.864 135.141 324.464 135.961C323.044 136.761 321.544 137.321 319.964 137.641C318.364 137.941 317.574 138.091 317.594 138.091C317.594 138.091 313.954 138.001 306.674 137.821C299.394 137.621 292.994 137.641 287.474 137.881C281.934 138.141 276.054 138.881 269.834 140.101C263.634 141.321 258.524 143.551 254.504 146.791C250.484 150.031 247.114 154.051 244.394 158.851C241.674 163.671 240.374 170.651 240.494 179.791C240.614 188.931 243.014 195.041 247.694 198.121C252.374 201.221 259.574 204.211 269.294 207.091C278.994 209.971 288.654 212.221 298.274 213.841C307.874 215.461 316.374 216.431 323.774 216.751C331.154 217.071 342.794 217.371 358.694 217.651C374.594 217.951 390.524 217.841 406.484 217.321C422.424 216.801 438.434 216.021 454.514 214.981C470.594 213.961 483.644 213.101 493.664 212.401C503.664 211.701 510.984 211.071 515.624 210.511C520.264 209.951 526.974 208.551 535.754 206.311C544.514 204.091 552.144 201.311 558.644 197.971C565.124 194.611 570.204 191.501 573.884 188.641C577.564 185.761 580.184 181.281 581.744 175.201C583.304 169.101 583.104 163.001 581.144 156.901C579.164 150.821 576.244 146.061 572.384 142.621C568.524 139.181 563.834 136.291 558.314 133.951C552.814 131.611 546.614 129.731 539.714 128.311C532.834 126.891 525.084 126.431 516.464 126.931C507.844 127.451 502.994 127.641 501.914 127.501C500.834 127.361 499.784 127.101 498.764 126.721C497.724 126.341 496.754 125.831 495.854 125.191C494.954 124.571 494.144 123.851 493.424 123.031C492.704 122.211 492.084 121.321 491.564 120.361C491.064 119.381 490.684 118.361 490.424 117.301C490.164 116.241 490.034 115.171 490.034 114.091C490.034 113.011 490.164 111.941 490.424 110.881C490.684 109.801 491.064 108.781 491.564 107.821C492.084 106.861 492.704 105.971 493.424 105.151C494.144 104.331 494.954 103.611 495.854 102.991C496.774 102.351 497.744 101.841 498.764 101.461C499.784 101.081 500.834 100.821 501.914 100.681C502.994 100.541 503.534 100.471 503.534 100.471Z" fill="black"/>
<path d="M306.435 118.418C306.435 118.418 311.275 120.588 320.955 124.928C330.615 129.248 338.165 132.438 343.605 134.498C349.065 136.558 356.475 138.388 365.835 139.988C375.215 141.588 388.295 143.108 405.075 144.548C421.875 145.988 438.545 146.808 455.085 147.008C471.645 147.188 483.735 144.648 491.355 139.388C498.995 134.148 504.295 129.548 507.255 125.588C510.215 121.608 512.955 117.938 515.475 114.578C517.995 111.198 519.725 109.138 520.665 108.398C521.625 107.638 522.675 107.048 523.815 106.628C524.955 106.228 526.135 106.018 527.355 105.998C528.575 105.978 529.765 106.148 530.925 106.508C532.085 106.868 533.155 107.408 534.135 108.128C535.115 108.848 535.955 109.698 536.655 110.678C537.355 111.678 537.885 112.758 538.245 113.918C538.585 115.098 538.735 116.288 538.695 117.488C538.655 118.708 538.425 119.888 538.005 121.028C537.565 122.168 536.965 123.208 536.205 124.148C535.425 125.088 534.525 125.878 533.505 126.518C532.465 127.178 531.355 127.648 530.175 127.928C528.995 128.208 527.805 128.298 526.605 128.198C525.385 128.078 524.215 127.778 523.095 127.298C521.995 126.818 520.995 126.168 520.095 125.348C519.195 124.528 518.445 123.578 517.845 122.498C517.265 121.438 516.865 120.318 516.645 119.138C516.425 117.938 516.395 116.738 516.555 115.538C516.735 114.318 517.105 113.168 517.665 112.088C518.205 111.008 518.905 110.038 519.765 109.178C520.645 108.338 521.625 107.648 522.705 107.108C523.805 106.568 524.955 106.228 526.155 106.088C527.375 105.928 528.575 105.968 529.755 106.208C530.955 106.448 532.085 106.868 533.145 107.468C534.185 108.068 535.105 108.828 535.905 109.748C536.725 110.668 537.365 111.688 537.825 112.808C538.305 113.928 538.585 115.088 538.665 116.288C538.765 117.508 538.665 118.708 538.365 119.888C538.045 121.068 537.555 122.168 536.895 123.188C536.235 124.208 535.905 124.718 535.905 124.718C535.905 124.718 534.345 126.128 531.225 128.948C528.105 131.748 524.215 135.348 519.555 139.748C514.875 144.148 507.375 149.508 497.055 155.828C486.715 162.148 472.765 165.458 455.205 165.758C437.645 166.038 420.185 165.668 402.825 164.648C385.485 163.608 371.165 162.338 359.865 160.838C348.585 159.338 340.345 157.328 335.145 154.808C329.965 152.288 322.405 149.168 312.465 145.448C302.565 141.708 297.205 139.618 296.385 139.178C295.585 138.718 294.845 138.168 294.165 137.528C293.485 136.888 292.885 136.178 292.365 135.398C291.865 134.618 291.455 133.788 291.135 132.908C290.835 132.028 290.645 131.118 290.565 130.178C290.485 129.278 290.505 128.358 290.625 127.418C290.765 126.498 291.015 125.608 291.375 124.748C291.735 123.888 292.185 123.078 292.725 122.318C293.285 121.578 293.925 120.908 294.645 120.308C295.365 119.708 296.145 119.198 296.985 118.778C297.805 118.378 298.675 118.078 299.595 117.878C300.515 117.678 301.425 117.588 302.325 117.608C303.265 117.648 304.185 117.788 305.085 118.028C305.985 118.288 306.435 118.418 306.435 118.418Z" fill="black"/>
<path d="M327.323 237.402C327.323 237.402 327.393 240.852 327.533 247.752C327.653 254.672 327.593 264.792 327.353 278.112C327.093 291.432 326.873 308.412 326.693 329.052C326.513 349.712 326.353 371.342 326.213 393.942C326.073 416.562 325.663 440.202 324.983 464.862C324.323 489.522 323.253 511.182 321.773 529.842C320.293 548.522 319.233 562.642 318.593 572.202C317.953 581.762 317.533 590.102 317.333 597.222C317.153 604.322 316.963 608.352 316.763 609.312C316.543 610.252 316.183 611.142 315.683 611.982C315.163 612.822 314.533 613.552 313.793 614.172C313.033 614.792 312.203 615.282 311.303 615.642C310.383 616.002 309.443 616.202 308.483 616.242C307.503 616.282 306.543 616.172 305.603 615.912C304.663 615.632 303.793 615.222 302.993 614.682C302.193 614.122 301.493 613.452 300.893 612.672C300.313 611.892 299.873 611.032 299.573 610.092C299.273 609.172 299.123 608.222 299.123 607.242C299.123 606.282 299.283 605.332 299.603 604.392C299.923 603.472 300.383 602.632 300.983 601.872C301.583 601.092 302.293 600.432 303.113 599.892C303.913 599.352 304.783 598.952 305.723 598.692C306.663 598.432 307.623 598.342 308.603 598.422C309.583 598.482 310.523 598.692 311.423 599.052C312.323 599.412 313.143 599.912 313.883 600.552C314.623 601.192 315.243 601.932 315.743 602.772C316.243 603.612 316.593 604.512 316.793 605.472C316.973 606.432 317.013 607.392 316.913 608.352C316.813 609.332 316.553 610.262 316.133 611.142C315.713 612.022 315.163 612.812 314.483 613.512C313.803 614.212 313.033 614.792 312.173 615.252C311.313 615.692 310.403 615.992 309.443 616.152C308.463 616.292 307.493 616.282 306.533 616.122C305.573 615.962 304.663 615.642 303.803 615.162C302.943 614.702 302.183 614.122 301.523 613.422C300.863 612.702 300.333 611.892 299.933 610.992C299.513 610.112 299.263 609.182 299.183 608.202C299.083 607.242 299.033 606.762 299.033 606.762C299.033 606.762 299.373 603.222 300.053 596.142C300.753 589.062 301.373 580.702 301.913 571.062C302.453 561.402 303.383 547.382 304.703 529.002C306.023 510.622 306.923 489.172 307.403 464.652C307.883 440.132 308.053 416.562 307.913 393.942C307.773 371.342 307.613 349.712 307.433 329.052C307.253 308.412 307.033 291.432 306.773 278.112C306.533 264.792 306.473 254.672 306.593 247.752C306.733 240.852 306.853 236.992 306.953 236.172C307.053 235.352 307.243 234.562 307.523 233.802C307.823 233.022 308.203 232.292 308.663 231.612C309.143 230.932 309.693 230.322 310.313 229.782C310.933 229.222 311.603 228.752 312.323 228.372C313.063 227.992 313.833 227.702 314.633 227.502C315.433 227.302 316.243 227.202 317.063 227.202C317.883 227.202 318.693 227.302 319.493 227.502C320.293 227.702 321.063 227.992 321.803 228.372C322.523 228.752 323.193 229.222 323.813 229.782C324.433 230.322 324.983 230.932 325.463 231.612C325.923 232.292 326.303 233.022 326.603 233.802C326.883 234.562 327.073 235.352 327.173 236.172C327.273 236.992 327.323 237.402 327.323 237.402Z" fill="black"/>
<path d="M454.069 378.488C454.069 378.488 456.389 379.908 461.029 382.748C465.669 385.568 470.189 388.018 474.589 390.098C478.969 392.158 485.799 393.668 495.079 394.628C504.359 395.568 512.299 395.978 518.899 395.858C525.519 395.738 531.759 395.108 537.619 393.968C543.479 392.848 549.229 390.658 554.869 387.398C560.489 384.098 563.519 379.988 563.959 375.068C564.399 370.168 563.099 364.888 560.059 359.228C557.019 353.568 553.389 349.468 549.169 346.928C544.949 344.388 539.609 342.568 533.149 341.468C526.689 340.368 521.819 339.678 518.539 339.398C515.259 339.138 512.709 338.758 510.889 338.258C509.069 337.738 507.379 336.948 505.819 335.888C504.259 334.828 502.909 333.548 501.769 332.048C500.629 330.528 499.769 328.878 499.189 327.098C498.589 325.318 498.289 323.478 498.289 321.578C498.289 319.698 498.599 317.868 499.219 316.088C499.819 314.288 500.689 312.638 501.829 311.138C502.969 309.638 504.329 308.368 505.909 307.328C507.469 306.268 509.159 305.488 510.979 304.988C512.799 304.488 514.649 304.288 516.529 304.388C518.409 304.508 520.229 304.918 521.989 305.618C523.729 306.318 525.319 307.278 526.759 308.498C528.199 309.718 529.399 311.138 530.359 312.758C531.339 314.378 532.029 316.108 532.429 317.948C532.829 319.808 532.919 321.668 532.699 323.528C532.499 325.408 531.999 327.208 531.199 328.928C530.399 330.628 529.349 332.158 528.049 333.518C526.749 334.898 525.259 336.028 523.579 336.908C521.919 337.788 520.159 338.378 518.299 338.678C516.439 338.978 514.579 338.968 512.719 338.648C510.859 338.348 509.089 337.748 507.409 336.848C505.749 335.968 504.279 334.838 502.999 333.458C501.699 332.098 500.649 330.558 499.849 328.838C499.069 327.118 498.579 325.318 498.379 323.438C498.179 321.578 498.289 319.718 498.709 317.858C499.109 316.018 499.799 314.298 500.779 312.698C501.759 311.078 502.969 309.658 504.409 308.438C505.849 307.218 507.449 306.268 509.209 305.588C510.969 304.888 512.789 304.488 514.669 304.388C516.549 304.288 517.489 304.238 517.489 304.238C517.489 304.238 519.119 304.468 522.379 304.928C525.639 305.408 530.019 306.018 535.519 306.758C541.039 307.498 545.889 308.598 550.069 310.058C554.249 311.498 558.649 313.478 563.269 315.998C567.889 318.518 572.239 321.858 576.319 326.018C580.419 330.178 583.979 334.798 586.999 339.878C590.039 344.958 592.499 351.268 594.379 358.808C596.259 366.348 596.039 374.108 593.719 382.088C591.399 390.068 588.369 396.288 584.629 400.748C580.909 405.228 576.999 408.518 572.899 410.618C568.779 412.718 564.269 414.668 559.369 416.468C554.449 418.268 548.389 419.928 541.189 421.448C533.989 422.948 526.479 424.038 518.659 424.718C510.839 425.378 503.529 425.488 496.729 425.048C489.949 424.608 483.519 423.648 477.439 422.168C471.359 420.668 465.669 418.578 460.369 415.898C455.069 413.218 450.139 410.408 445.579 407.468C440.999 404.548 438.259 402.718 437.359 401.978C436.439 401.238 435.629 400.408 434.929 399.488C434.229 398.568 433.649 397.568 433.189 396.488C432.729 395.408 432.399 394.298 432.199 393.158C431.999 392.018 431.949 390.868 432.049 389.708C432.129 388.548 432.349 387.418 432.709 386.318C433.069 385.198 433.559 384.148 434.179 383.168C434.799 382.188 435.529 381.288 436.369 380.468C437.209 379.648 438.129 378.948 439.129 378.368C440.149 377.788 441.219 377.328 442.339 376.988C443.439 376.668 444.579 376.478 445.759 376.418C446.899 376.358 448.039 376.448 449.179 376.688C450.319 376.908 451.419 377.268 452.479 377.768C453.539 378.248 454.069 378.488 454.069 378.488Z" fill="black"/>
<path d="M519.321 235.054C519.321 235.054 518.811 240.514 517.791 251.434C516.791 262.374 515.711 272.534 514.551 281.914C513.391 291.274 512.811 298.484 512.811 303.544C512.791 308.584 512.821 312.994 512.901 316.774C512.981 320.554 512.871 323.104 512.571 324.424C512.251 325.744 511.741 326.984 511.041 328.144C510.321 329.284 509.441 330.284 508.401 331.144C507.341 332.004 506.191 332.674 504.951 333.154C503.691 333.654 502.381 333.924 501.021 333.964C499.681 334.024 498.361 333.864 497.061 333.484C495.761 333.104 494.551 332.524 493.431 331.744C492.331 330.964 491.381 330.034 490.581 328.954C489.781 327.854 489.171 326.664 488.751 325.384C488.331 324.104 488.131 322.784 488.151 321.424C488.171 320.064 488.411 318.744 488.871 317.464C489.311 316.204 489.951 315.034 490.791 313.954C491.631 312.894 492.611 311.994 493.731 311.254C494.871 310.514 496.091 309.974 497.391 309.634C498.711 309.274 500.041 309.144 501.381 309.244C502.741 309.344 504.041 309.654 505.281 310.174C506.521 310.694 507.651 311.394 508.671 312.274C509.691 313.174 510.541 314.204 511.221 315.364C511.901 316.544 512.371 317.794 512.631 319.114C512.911 320.434 512.971 321.764 512.811 323.104C512.631 324.464 512.251 325.754 511.671 326.974C511.091 328.194 510.331 329.284 509.391 330.244C508.431 331.204 507.361 331.994 506.181 332.614C504.981 333.234 503.711 333.644 502.371 333.844C501.031 334.044 499.691 334.024 498.351 333.784C497.031 333.544 495.771 333.104 494.571 332.464C493.391 331.804 492.341 330.974 491.421 329.974C490.501 328.974 489.771 327.864 489.231 326.644C488.671 325.404 488.331 324.104 488.211 322.744C488.091 321.404 488.031 320.734 488.031 320.734C488.031 320.734 488.321 318.864 488.901 315.124C489.501 311.384 490.151 306.944 490.851 301.804C491.531 296.664 492.121 289.524 492.621 280.384C493.101 271.224 493.411 261.154 493.551 250.174C493.691 239.214 493.851 233.224 494.031 232.204C494.211 231.204 494.511 230.234 494.931 229.294C495.331 228.334 495.851 227.454 496.491 226.654C497.111 225.834 497.821 225.104 498.621 224.464C499.441 223.824 500.321 223.284 501.261 222.844C502.181 222.424 503.151 222.114 504.171 221.914C505.171 221.714 506.181 221.644 507.201 221.704C508.221 221.764 509.221 221.944 510.201 222.244C511.201 222.544 512.141 222.954 513.021 223.474C513.901 223.994 514.711 224.614 515.451 225.334C516.191 226.074 516.831 226.874 517.371 227.734C517.911 228.614 518.331 229.544 518.631 230.524C518.951 231.504 519.141 232.514 519.201 233.554C519.281 234.554 519.321 235.054 519.321 235.054Z" fill="black"/>
<path d="M506.331 414.849C506.331 414.849 506.451 417.439 506.691 422.619C506.951 427.799 506.871 434.669 506.451 443.229C506.031 451.769 505.791 463.069 505.731 477.129C505.671 491.209 505.211 505.599 504.351 520.299C503.471 534.999 502.801 550.009 502.341 565.329C501.881 580.669 501.521 594.199 501.261 605.919C501.001 617.619 501.041 626.259 501.381 631.839C501.721 637.399 502.071 642.239 502.431 646.359C502.791 650.479 502.871 653.149 502.671 654.369C502.451 655.589 502.051 656.739 501.471 657.819C500.871 658.919 500.121 659.889 499.221 660.729C498.321 661.569 497.301 662.249 496.161 662.769C495.061 663.269 493.891 663.579 492.651 663.699C491.411 663.839 490.191 663.769 488.991 663.489C487.791 663.209 486.661 662.749 485.601 662.109C484.541 661.449 483.611 660.649 482.811 659.709C482.031 658.749 481.411 657.689 480.951 656.529C480.511 655.389 480.261 654.199 480.201 652.959C480.141 651.719 480.281 650.499 480.621 649.299C480.961 648.119 481.481 647.019 482.181 645.999C482.881 644.979 483.731 644.099 484.731 643.359C485.731 642.619 486.821 642.059 488.001 641.679C489.161 641.279 490.361 641.089 491.601 641.109C492.841 641.109 494.041 641.309 495.201 641.709C496.361 642.129 497.431 642.719 498.411 643.479C499.391 644.219 500.231 645.109 500.931 646.149C501.611 647.189 502.111 648.299 502.431 649.479C502.751 650.679 502.871 651.899 502.791 653.139C502.711 654.379 502.441 655.569 501.981 656.709C501.521 657.869 500.881 658.909 500.061 659.829C499.261 660.769 498.321 661.559 497.241 662.199C496.181 662.819 495.051 663.259 493.851 663.519C492.651 663.779 491.431 663.839 490.191 663.699C488.971 663.539 487.801 663.199 486.681 662.679C485.561 662.159 484.551 661.469 483.651 660.609C482.771 659.749 482.041 658.769 481.461 657.669C480.881 656.569 480.501 655.409 480.321 654.189C480.121 652.949 480.021 652.329 480.021 652.329C480.021 652.329 480.241 650.279 480.681 646.179C481.101 642.059 481.531 637.219 481.971 631.659C482.391 626.099 482.571 617.439 482.511 605.679C482.471 593.919 482.461 580.289 482.481 564.789C482.521 549.289 482.681 534.319 482.961 519.879C483.241 505.459 483.351 491.209 483.291 477.129C483.231 463.069 482.991 451.769 482.571 443.229C482.151 434.669 482.071 427.799 482.331 422.619C482.571 417.439 482.751 414.379 482.871 413.439C482.991 412.499 483.221 411.589 483.561 410.709C483.881 409.809 484.311 408.969 484.851 408.189C485.391 407.409 486.021 406.709 486.741 406.089C487.461 405.449 488.241 404.909 489.081 404.469C489.921 404.029 490.801 403.699 491.721 403.479C492.641 403.239 493.571 403.119 494.511 403.119C495.451 403.119 496.381 403.239 497.301 403.479C498.221 403.699 499.101 404.029 499.941 404.469C500.781 404.909 501.561 405.449 502.281 406.089C503.001 406.709 503.631 407.409 504.171 408.189C504.711 408.969 505.141 409.809 505.461 410.709C505.801 411.589 506.031 412.499 506.151 413.439C506.271 414.379 506.331 414.849 506.331 414.849Z" fill="black"/>
<path d="M284.798 550.67C284.798 550.67 279.937 549.6 270.217 547.46C260.477 545.3 253.008 543.99 247.808 543.53C242.588 543.07 236.558 542.39 229.718 541.49C222.898 540.59 215.878 539.9 208.658 539.42C201.458 538.92 194.008 538.51 186.308 538.19C178.608 537.89 171.678 537.79 165.518 537.89C159.358 537.99 152.978 538.54 146.378 539.54C139.758 540.54 134.407 541.91 130.327 543.65C126.247 545.39 121.478 547.25 116.018 549.23C110.558 551.21 104.608 553.92 98.1675 557.36C91.7275 560.82 84.9075 565.02 77.7075 569.96C70.5075 574.92 65.2375 579.13 61.8975 582.59C58.5775 586.05 55.1175 590.64 51.5175 596.36C47.9175 602.1 44.9075 607.29 42.4875 611.93C40.0675 616.57 38.0175 622.62 36.3375 630.08C34.6575 637.54 33.6975 645.47 33.4575 653.87C33.2175 662.27 33.0775 668.87 33.0375 673.67C32.9975 678.47 33.1975 683.31 33.6375 688.19C34.0775 693.09 36.0375 699.63 39.5175 707.81C43.0175 715.99 47.2275 723.8 52.1475 731.24C57.0875 738.66 61.1175 744.17 64.2375 747.77C67.3375 751.37 70.8275 755 74.7075 758.66C78.5675 762.34 82.8975 766.11 87.6975 769.97C92.4775 773.85 97.2975 777.46 102.158 780.8C106.998 784.14 112.238 787.36 117.878 790.46C123.498 793.56 129.358 796.35 135.458 798.83C141.578 801.31 148.398 803.82 155.918 806.36C163.438 808.88 171.657 811.36 180.577 813.8C189.477 816.22 197.948 817.98 205.988 819.08C214.048 820.2 223.308 821.34 233.768 822.5C244.228 823.66 255.638 824.51 267.998 825.05C280.358 825.61 291.608 825.46 301.748 824.6C311.888 823.74 319.478 822.88 324.518 822.02C329.558 821.16 335.578 820.06 342.578 818.72C349.578 817.4 356.778 815.69 364.178 813.59C371.578 811.47 378.488 809.06 384.908 806.36C391.328 803.68 396.428 801.31 400.208 799.25C403.988 797.21 408.207 794.69 412.867 791.69C417.507 788.71 422.568 785.46 428.048 781.94C433.508 778.4 438.188 774.26 442.088 769.52C445.988 764.76 450.058 759.78 454.298 754.58C458.518 749.38 461.868 744.05 464.348 738.59C466.828 733.13 468.917 727.14 470.617 720.62C472.297 714.1 473.868 707.14 475.328 699.74C476.788 692.34 477.668 685.97 477.968 680.63C478.248 675.27 478.358 669.16 478.298 662.3C478.258 655.44 478.378 651.3 478.658 649.88C478.938 648.48 479.428 647.16 480.128 645.92C480.848 644.68 481.737 643.59 482.797 642.65C483.877 641.69 485.078 640.93 486.398 640.37C487.698 639.81 489.068 639.48 490.508 639.38C491.928 639.28 493.327 639.4 494.707 639.74C496.107 640.1 497.408 640.67 498.608 641.45C499.808 642.23 500.848 643.18 501.728 644.3C502.628 645.42 503.317 646.65 503.797 647.99C504.277 649.33 504.538 650.72 504.578 652.16C504.598 653.58 504.398 654.98 503.978 656.36C503.558 657.72 502.928 658.98 502.088 660.14C501.248 661.3 500.238 662.29 499.058 663.11C497.898 663.93 496.628 664.55 495.248 664.97C493.888 665.39 492.487 665.57 491.047 665.51C489.627 665.47 488.248 665.2 486.908 664.7C485.568 664.2 484.338 663.5 483.218 662.6C482.118 661.68 481.188 660.62 480.428 659.42C479.668 658.2 479.117 656.9 478.777 655.52C478.437 654.12 478.328 652.71 478.448 651.29C478.568 649.87 478.918 648.5 479.498 647.18C480.078 645.88 480.848 644.7 481.808 643.64C482.768 642.58 483.868 641.7 485.108 641C486.368 640.3 487.698 639.82 489.098 639.56C490.498 639.3 491.908 639.27 493.328 639.47C494.748 639.67 496.098 640.09 497.378 640.73C498.658 641.39 499.797 642.22 500.797 643.22C501.797 644.24 502.618 645.4 503.258 646.7C503.878 647.98 504.277 649.33 504.457 650.75C504.657 652.17 504.758 652.88 504.758 652.88C504.758 652.88 504.298 656.57 503.378 663.95C502.478 671.35 501.587 677.96 500.707 683.78C499.847 689.6 498.787 696.51 497.527 704.51C496.267 712.53 494.638 720.55 492.638 728.57C490.658 736.59 487.918 744.13 484.418 751.19C480.938 758.27 476.998 764.45 472.598 769.73C468.218 775.03 463.268 780.87 457.748 787.25C452.228 793.63 446.548 798.65 440.708 802.31C434.868 805.99 429.108 809.37 423.428 812.45C417.748 815.55 412.778 817.8 408.518 819.2C404.258 820.6 398.598 822.66 391.538 825.38C384.478 828.1 376.918 830.7 368.858 833.18C360.798 835.66 352.928 837.56 345.248 838.88C337.588 840.22 331.228 840.87 326.168 840.83C321.128 840.81 313.158 841.35 302.258 842.45C291.398 843.55 279.598 843.97 266.858 843.71C254.118 843.45 242.448 842.95 231.848 842.21C221.248 841.45 211.458 840.73 202.478 840.05C193.498 839.37 184.288 838.15 174.848 836.39C165.408 834.63 156.418 832.8 147.878 830.9C139.338 828.98 131.448 826.76 124.208 824.24C116.968 821.7 109.938 818.79 103.118 815.51C96.2975 812.23 90.1675 808.82 84.7275 805.28C79.3075 801.76 73.6775 797.91 67.8375 793.73C61.9775 789.57 56.6175 785.3 51.7575 780.92C46.8775 776.54 42.4875 772.1 38.5875 767.6C34.6875 763.1 31.2475 758.66 28.2675 754.28C25.2875 749.92 22.3575 745.3 19.4775 740.42C16.5975 735.54 14.1175 730.7 12.0375 725.9C9.95751 721.08 7.74751 715.4 5.40751 708.86C3.08751 702.32 1.58751 695.96 0.907509 689.78C0.247509 683.62 -0.0525002 678.05 0.00749982 673.07C0.0874998 668.09 0.207508 663.13 0.367508 658.19C0.547508 653.23 0.847517 648.39 1.26752 643.67C1.68752 638.95 2.40752 633.69 3.42752 627.89C4.44752 622.09 5.93751 616.73 7.89751 611.81C9.87751 606.89 12.1475 601.94 14.7075 596.96C17.2675 591.98 19.7775 587.55 22.2375 583.67C24.6975 579.81 27.5675 576.02 30.8475 572.3C34.1275 568.6 38.1475 564.42 42.9075 559.76C47.6675 555.08 52.2675 551.31 56.7075 548.45C61.1275 545.59 65.8075 542.82 70.7475 540.14C75.7075 537.5 81.7475 534.81 88.8675 532.07C96.0075 529.33 102.358 527.11 107.918 525.41C113.478 523.69 119.018 522.07 124.538 520.55C130.078 519.03 136.788 517.65 144.668 516.41C152.548 515.17 159.618 514.67 165.878 514.91C172.118 515.15 179.198 515.27 187.118 515.27C195.058 515.27 202.958 515.4 210.818 515.66C218.658 515.92 226.038 516.49 232.958 517.37C239.858 518.25 246.028 519.19 251.468 520.19C256.888 521.21 264.538 522.37 274.418 523.67C284.258 524.99 289.668 525.8 290.648 526.1C291.628 526.4 292.558 526.81 293.438 527.33C294.317 527.85 295.118 528.47 295.838 529.19C296.578 529.91 297.208 530.7 297.728 531.56C298.268 532.44 298.698 533.37 299.018 534.35C299.318 535.31 299.508 536.3 299.588 537.32C299.648 538.32 299.588 539.33 299.408 540.35C299.228 541.35 298.938 542.32 298.538 543.26C298.118 544.2 297.598 545.07 296.978 545.87C296.338 546.67 295.618 547.39 294.818 548.03C294.018 548.67 293.158 549.2 292.238 549.62C291.298 550.06 290.328 550.37 289.328 550.55C288.328 550.75 287.328 550.82 286.328 550.76C285.308 550.7 284.798 550.67 284.798 550.67Z" fill="black"/>
<path d="M143.253 811.16C143.253 811.16 143.333 816.35 143.493 826.73C143.633 837.13 143.673 848.64 143.613 861.26C143.553 873.88 143.453 886.32 143.313 898.58C143.193 910.86 143.183 920.75 143.283 928.25C143.383 935.75 144.673 941.53 147.153 945.59C149.633 949.67 153.583 953.31 159.003 956.51C164.423 959.73 169.673 962.66 174.753 965.3C179.833 967.92 184.333 970.17 188.253 972.05C192.173 973.93 194.683 975.31 195.783 976.19C196.883 977.07 197.813 978.11 198.573 979.31C199.333 980.49 199.893 981.76 200.253 983.12C200.593 984.5 200.703 985.89 200.583 987.29C200.483 988.69 200.153 990.04 199.593 991.34C199.033 992.64 198.283 993.82 197.343 994.88C196.403 995.92 195.323 996.79 194.103 997.49C192.883 998.19 191.573 998.68 190.173 998.96C188.793 999.22 187.403 999.26 186.003 999.08C184.603 998.88 183.273 998.47 182.013 997.85C180.753 997.23 179.623 996.42 178.623 995.42C177.623 994.42 176.803 993.29 176.163 992.03C175.543 990.77 175.133 989.44 174.933 988.04C174.733 986.64 174.773 985.25 175.053 983.87C175.313 982.49 175.783 981.18 176.463 979.94C177.163 978.72 178.033 977.64 179.073 976.7C180.133 975.74 181.303 974.98 182.583 974.42C183.883 973.86 185.233 973.52 186.633 973.4C188.053 973.28 189.443 973.39 190.803 973.73C192.183 974.07 193.463 974.62 194.643 975.38C195.843 976.14 196.883 977.07 197.763 978.17C198.643 979.27 199.333 980.48 199.833 981.8C200.313 983.12 200.573 984.49 200.613 985.91C200.653 987.31 200.473 988.69 200.073 990.05C199.653 991.39 199.033 992.63 198.213 993.77C197.393 994.93 196.413 995.92 195.273 996.74C194.133 997.56 192.883 998.18 191.523 998.6C190.183 999.02 188.813 999.21 187.413 999.17C185.993 999.15 184.623 998.89 183.303 998.39C181.963 997.91 181.303 997.67 181.323 997.67C181.323 997.67 179.503 996.49 175.863 994.13C172.223 991.75 167.823 989 162.663 985.88C157.523 982.78 151.053 978.78 143.253 973.88C135.453 968.98 130.373 964.3 128.013 959.84C125.653 955.36 124.323 950.87 124.023 946.37C123.723 941.89 123.583 935.9 123.603 928.4C123.603 920.9 123.433 911.06 123.093 898.88C122.773 886.7 122.333 874.44 121.773 862.1C121.213 849.76 120.433 838.42 119.433 828.08C118.433 817.72 117.963 812.04 118.023 811.04C118.083 810.02 118.273 809.02 118.593 808.04C118.893 807.08 119.313 806.16 119.853 805.28C120.373 804.42 121.003 803.63 121.743 802.91C122.463 802.19 123.263 801.57 124.143 801.05C125.023 800.51 125.943 800.09 126.903 799.79C127.883 799.49 128.883 799.32 129.903 799.28C130.903 799.22 131.903 799.28 132.903 799.46C133.923 799.66 134.893 799.97 135.813 800.39C136.733 800.81 137.603 801.34 138.423 801.98C139.223 802.6 139.933 803.32 140.553 804.14C141.173 804.94 141.693 805.81 142.113 806.75C142.533 807.67 142.833 808.64 143.013 809.66C143.173 810.66 143.253 811.16 143.253 811.16Z" fill="black"/>
<path d="M144.663 959.222C144.663 959.222 144.633 962.392 144.573 968.732C144.533 975.072 144.633 981.582 144.873 988.262C145.113 994.962 145.103 999.092 144.843 1000.65C144.583 1002.21 144.083 1003.68 143.343 1005.06C142.603 1006.46 141.663 1007.71 140.523 1008.81C139.363 1009.89 138.073 1010.76 136.653 1011.42C135.213 1012.08 133.713 1012.5 132.153 1012.68C130.593 1012.84 129.043 1012.75 127.503 1012.41C125.963 1012.07 124.513 1011.5 123.153 1010.7C121.793 1009.88 120.603 1008.87 119.583 1007.67C118.563 1006.45 117.763 1005.11 117.183 1003.65C116.603 1002.19 116.263 1000.67 116.163 999.092C116.083 997.512 116.253 995.962 116.673 994.442C117.093 992.922 117.753 991.502 118.653 990.182C119.533 988.882 120.603 987.752 121.863 986.792C123.123 985.832 124.503 985.102 126.003 984.602C127.503 984.102 129.033 983.852 130.593 983.852C132.173 983.852 133.703 984.102 135.183 984.602C136.683 985.122 138.063 985.852 139.323 986.792C140.583 987.752 141.653 988.892 142.533 990.212C143.433 991.512 144.093 992.922 144.513 994.442C144.933 995.962 145.103 997.512 145.023 999.092C144.923 1000.67 144.583 1002.19 144.003 1003.65C143.423 1005.13 142.623 1006.47 141.603 1007.67C140.563 1008.87 139.373 1009.88 138.033 1010.7C136.673 1011.5 135.223 1012.07 133.683 1012.41C132.143 1012.75 130.593 1012.84 129.033 1012.68C127.473 1012.5 125.973 1012.08 124.533 1011.42C123.093 1010.76 121.803 1009.88 120.663 1008.78C119.523 1007.7 118.583 1006.46 117.843 1005.06C117.103 1003.68 116.603 1002.21 116.343 1000.65C116.083 999.092 115.953 998.312 115.953 998.312C115.953 998.312 116.073 994.962 116.313 988.262C116.553 981.582 116.653 975.072 116.613 968.732C116.553 962.392 116.593 958.662 116.733 957.542C116.873 956.422 117.143 955.332 117.543 954.272C117.943 953.212 118.463 952.222 119.103 951.302C119.743 950.362 120.493 949.522 121.353 948.782C122.193 948.022 123.113 947.382 124.113 946.862C125.113 946.342 126.163 945.942 127.263 945.662C128.363 945.402 129.473 945.272 130.593 945.272C131.713 945.272 132.823 945.402 133.923 945.662C135.023 945.942 136.073 946.342 137.073 946.862C138.073 947.382 138.993 948.022 139.833 948.782C140.693 949.522 141.443 950.362 142.083 951.302C142.723 952.222 143.243 953.212 143.643 954.272C144.043 955.332 144.313 956.422 144.453 957.542C144.593 958.662 144.663 959.222 144.663 959.222Z" fill="black"/>
<path d="M138.025 965.484C138.025 965.484 135.655 968.034 130.915 973.134C126.215 978.214 121.185 982.974 115.825 987.414C110.465 991.854 105.345 995.784 100.465 999.204C95.5852 1002.62 92.4352 1004.63 91.0152 1005.23C89.5952 1005.83 88.1252 1006.19 86.6052 1006.31C85.0652 1006.43 83.5452 1006.3 82.0452 1005.92C80.5652 1005.54 79.1752 1004.94 77.8752 1004.12C76.5952 1003.28 75.4752 1002.26 74.5152 1001.06C73.5552 999.864 72.8052 998.544 72.2652 997.104C71.7452 995.664 71.4652 994.174 71.4252 992.634C71.3852 991.094 71.5952 989.584 72.0552 988.104C72.5152 986.644 73.1952 985.294 74.0952 984.054C74.9952 982.814 76.0752 981.744 77.3352 980.844C78.5752 979.944 79.9352 979.274 81.4152 978.834C82.8752 978.394 84.3752 978.194 85.9152 978.234C87.4552 978.274 88.9452 978.564 90.3852 979.104C91.8252 979.644 93.1452 980.394 94.3452 981.354C95.5452 982.314 96.5552 983.444 97.3752 984.744C98.1952 986.044 98.7852 987.444 99.1452 988.944C99.5252 990.444 99.6452 991.954 99.5052 993.474C99.3852 995.014 99.0152 996.484 98.3952 997.884C97.7752 999.304 96.9552 1000.58 95.9352 1001.72C94.8952 1002.86 93.7052 1003.8 92.3652 1004.54C91.0252 1005.3 89.6052 1005.82 88.1052 1006.1C86.5852 1006.38 85.0652 1006.42 83.5452 1006.22C82.0252 1006 80.5752 1005.55 79.1952 1004.87C77.8352 1004.17 76.6052 1003.28 75.5052 1002.2C74.4252 1001.1 73.5452 999.864 72.8652 998.484C72.1852 997.104 71.7452 995.654 71.5452 994.134C71.3452 992.614 71.3952 991.104 71.6952 989.604C71.9952 988.084 72.5252 986.654 73.2852 985.314C74.0452 983.994 74.9952 982.824 76.1352 981.804C77.2952 980.764 77.8652 980.244 77.8452 980.244C77.8452 980.244 79.9952 979.044 84.2952 976.644C88.5752 974.244 92.8752 971.334 97.1952 967.914C101.515 964.474 105.925 960.124 110.425 954.864C114.905 949.584 117.575 946.574 118.435 945.834C119.275 945.094 120.185 944.464 121.165 943.944C122.165 943.424 123.215 943.034 124.315 942.774C125.395 942.494 126.485 942.354 127.585 942.354C128.705 942.354 129.815 942.494 130.915 942.774C131.995 943.034 133.035 943.434 134.035 943.974C135.035 944.494 135.955 945.124 136.795 945.864C137.635 946.604 138.365 947.444 138.985 948.384C139.625 949.304 140.145 950.284 140.545 951.324C140.945 952.384 141.205 953.474 141.325 954.594C141.465 955.674 141.465 956.774 141.325 957.894C141.185 959.014 140.915 960.094 140.515 961.134C140.115 962.194 139.595 963.184 138.955 964.104C138.315 965.024 138.005 965.484 138.025 965.484Z" fill="black"/>
<path d="M411.168 818.375C411.168 818.375 410.658 825.285 409.638 839.105C408.618 852.925 407.818 866.765 407.238 880.625C406.658 894.465 406.408 904.635 406.488 911.135C406.548 917.635 406.478 924.845 406.278 932.765C406.098 940.685 406.138 947.485 406.398 953.165C406.638 958.845 406.898 964.285 407.178 969.485C407.458 974.685 407.488 977.945 407.268 979.265C407.048 980.585 406.628 981.825 406.008 982.985C405.388 984.165 404.588 985.215 403.608 986.135C402.648 987.055 401.558 987.785 400.338 988.325C399.118 988.885 397.858 989.235 396.558 989.375C395.238 989.515 393.928 989.445 392.628 989.165C391.328 988.865 390.108 988.375 388.968 987.695C387.828 986.995 386.828 986.135 385.968 985.115C385.108 984.095 384.428 982.965 383.928 981.725C383.448 980.485 383.168 979.205 383.088 977.885C383.028 976.545 383.178 975.235 383.538 973.955C383.898 972.675 384.448 971.485 385.188 970.385C385.948 969.285 386.858 968.335 387.918 967.535C388.978 966.715 390.148 966.095 391.428 965.675C392.688 965.255 393.978 965.045 395.298 965.045C396.638 965.065 397.928 965.285 399.168 965.705C400.428 966.125 401.588 966.745 402.648 967.565C403.708 968.365 404.608 969.325 405.348 970.445C406.108 971.545 406.658 972.735 406.998 974.015C407.358 975.315 407.498 976.625 407.418 977.945C407.338 979.285 407.058 980.565 406.578 981.785C406.078 983.025 405.388 984.155 404.508 985.175C403.648 986.195 402.648 987.045 401.508 987.725C400.368 988.405 399.148 988.885 397.848 989.165C396.548 989.445 395.238 989.515 393.918 989.375C392.598 989.235 391.328 988.875 390.108 988.295C388.908 987.735 387.828 986.995 386.868 986.075C385.908 985.155 385.108 984.105 384.468 982.925C383.848 981.745 383.438 980.495 383.238 979.175C383.018 977.875 382.908 977.225 382.908 977.225C382.908 977.225 383.068 974.615 383.388 969.395C383.688 964.195 383.988 958.745 384.288 953.045C384.568 947.365 384.658 940.525 384.558 932.525C384.458 924.545 384.548 917.295 384.828 910.775C385.088 904.275 385.178 893.995 385.098 879.935C385.018 865.895 385.048 851.945 385.188 838.085C385.308 824.265 385.458 816.835 385.638 815.795C385.798 814.775 386.078 813.785 386.478 812.825C386.898 811.885 387.418 810.995 388.038 810.155C388.658 809.335 389.378 808.595 390.198 807.935C390.998 807.275 391.868 806.725 392.808 806.285C393.748 805.845 394.728 805.525 395.748 805.325C396.748 805.105 397.758 805.015 398.778 805.055C399.818 805.115 400.838 805.285 401.838 805.565C402.838 805.865 403.788 806.275 404.688 806.795C405.588 807.315 406.408 807.935 407.148 808.655C407.888 809.375 408.538 810.175 409.098 811.055C409.658 811.915 410.098 812.845 410.418 813.845C410.758 814.825 410.968 815.835 411.048 816.875C411.128 817.875 411.168 818.375 411.168 818.375Z" fill="black"/>
<path d="M409.278 985.518C409.278 985.518 406.468 988.828 400.848 995.448C395.268 1002.07 390.608 1007.26 386.868 1011.02C383.128 1014.78 379.328 1019.12 375.468 1024.04C371.608 1028.98 369.098 1031.93 367.938 1032.89C366.798 1033.85 365.528 1034.6 364.128 1035.14C362.728 1035.68 361.288 1035.98 359.808 1036.04C358.308 1036.12 356.838 1035.95 355.398 1035.53C353.958 1035.11 352.618 1034.48 351.378 1033.64C350.158 1032.78 349.098 1031.75 348.198 1030.55C347.298 1029.35 346.618 1028.04 346.158 1026.62C345.698 1025.2 345.478 1023.74 345.498 1022.24C345.498 1020.74 345.748 1019.28 346.248 1017.86C346.748 1016.46 347.458 1015.17 348.378 1013.99C349.278 1012.79 350.358 1011.78 351.618 1010.96C352.858 1010.14 354.198 1009.53 355.638 1009.13C357.098 1008.75 358.568 1008.61 360.048 1008.71C361.548 1008.81 362.988 1009.14 364.368 1009.7C365.768 1010.26 367.028 1011.03 368.148 1012.01C369.288 1012.99 370.238 1014.13 370.998 1015.43C371.758 1016.71 372.288 1018.09 372.588 1019.57C372.888 1021.03 372.958 1022.5 372.798 1023.98C372.618 1025.46 372.208 1026.88 371.568 1028.24C370.928 1029.6 370.088 1030.81 369.048 1031.87C368.008 1032.95 366.818 1033.84 365.478 1034.54C364.158 1035.22 362.758 1035.67 361.278 1035.89C359.798 1036.13 358.318 1036.12 356.838 1035.86C355.358 1035.6 353.958 1035.11 352.638 1034.39C351.338 1033.69 350.178 1032.79 349.158 1031.69C348.138 1030.59 347.318 1029.36 346.698 1028C346.078 1026.64 345.698 1025.21 345.558 1023.71C345.418 1022.23 345.508 1020.76 345.828 1019.3C346.168 1017.84 346.728 1016.47 347.508 1015.19C348.308 1013.91 348.708 1013.27 348.708 1013.27C348.708 1013.27 352.748 1009.5 360.828 1001.96C368.928 994.398 375.358 987.018 380.118 979.818C384.878 972.618 387.638 968.618 388.398 967.818C389.178 967.018 390.028 966.318 390.948 965.718C391.888 965.138 392.888 964.668 393.948 964.308C394.988 963.948 396.058 963.728 397.158 963.648C398.258 963.548 399.348 963.588 400.428 963.768C401.528 963.948 402.588 964.258 403.608 964.698C404.628 965.118 405.578 965.668 406.458 966.348C407.338 967.008 408.138 967.768 408.858 968.628C409.558 969.488 410.138 970.418 410.598 971.418C411.078 972.418 411.428 973.458 411.648 974.538C411.868 975.618 411.958 976.698 411.918 977.778C411.878 978.898 411.708 979.988 411.408 981.048C411.088 982.108 410.658 983.118 410.118 984.078C409.558 985.038 409.278 985.518 409.278 985.518Z" fill="black"/>
<path d="M401.845 972.017C401.845 972.017 403.175 975.517 405.835 982.517C408.495 989.517 410.835 995.377 412.855 1000.1C414.895 1004.8 416.695 1008.83 418.255 1012.19C419.815 1015.55 420.745 1017.98 421.045 1019.48C421.365 1021 421.435 1022.52 421.255 1024.04C421.075 1025.58 420.655 1027.04 419.995 1028.42C419.335 1029.82 418.465 1031.07 417.385 1032.17C416.325 1033.27 415.105 1034.17 413.725 1034.87C412.365 1035.59 410.925 1036.06 409.405 1036.28C407.885 1036.52 406.365 1036.51 404.845 1036.25C403.325 1035.97 401.895 1035.47 400.555 1034.75C399.195 1034.01 397.995 1033.07 396.955 1031.93C395.895 1030.81 395.055 1029.55 394.435 1028.15C393.795 1026.73 393.405 1025.26 393.265 1023.74C393.105 1022.2 393.205 1020.68 393.565 1019.18C393.905 1017.68 394.485 1016.28 395.305 1014.98C396.105 1013.66 397.095 1012.51 398.275 1011.53C399.455 1010.55 400.765 1009.78 402.205 1009.22C403.645 1008.68 405.135 1008.37 406.675 1008.29C408.215 1008.23 409.725 1008.41 411.205 1008.83C412.685 1009.27 414.055 1009.93 415.315 1010.81C416.575 1011.69 417.665 1012.74 418.585 1013.96C419.505 1015.2 420.195 1016.55 420.655 1018.01C421.135 1019.49 421.365 1021 421.345 1022.54C421.345 1024.06 421.085 1025.55 420.565 1027.01C420.065 1028.47 419.335 1029.81 418.375 1031.03C417.435 1032.23 416.325 1033.26 415.045 1034.12C413.765 1034.96 412.385 1035.58 410.905 1035.98C409.405 1036.38 407.885 1036.53 406.345 1036.43C404.825 1036.33 403.345 1035.98 401.905 1035.38C400.485 1034.8 399.195 1034.01 398.035 1033.01C396.875 1031.99 395.905 1030.82 395.125 1029.5C394.345 1028.16 393.955 1027.49 393.955 1027.49C393.955 1027.49 393.405 1025.73 392.305 1022.21C391.205 1018.67 389.875 1014.58 388.315 1009.94C386.755 1005.3 384.415 999.567 381.295 992.747C378.195 985.927 376.495 981.987 376.195 980.927C375.895 979.867 375.725 978.787 375.685 977.687C375.645 976.607 375.745 975.527 375.985 974.447C376.205 973.387 376.555 972.357 377.035 971.357C377.515 970.377 378.105 969.457 378.805 968.597C379.505 967.757 380.305 967.017 381.205 966.377C382.085 965.717 383.025 965.177 384.025 964.757C385.045 964.337 386.095 964.037 387.175 963.857C388.275 963.697 389.365 963.667 390.445 963.767C391.525 963.867 392.585 964.087 393.625 964.427C394.665 964.787 395.645 965.267 396.565 965.867C397.505 966.467 398.345 967.167 399.085 967.967C399.845 968.767 400.495 969.637 401.035 970.577C401.575 971.537 401.845 972.017 401.845 972.017Z" fill="black"/>
<path d="M404.14 955.457C404.14 955.457 407.15 958.517 413.17 964.637C419.19 970.737 424.4 975.437 428.8 978.737C433.18 982.057 437.09 984.937 440.53 987.377C443.99 989.817 446.19 991.577 447.13 992.657C448.09 993.717 448.84 994.907 449.38 996.227C449.94 997.547 450.28 998.917 450.4 1000.34C450.5 1001.76 450.37 1003.16 450.01 1004.54C449.67 1005.94 449.11 1007.24 448.33 1008.44C447.55 1009.62 446.6 1010.66 445.48 1011.56C444.36 1012.44 443.13 1013.12 441.79 1013.6C440.43 1014.1 439.04 1014.36 437.62 1014.38C436.2 1014.42 434.8 1014.22 433.42 1013.78C432.06 1013.36 430.81 1012.73 429.67 1011.89C428.51 1011.05 427.52 1010.04 426.7 1008.86C425.86 1007.7 425.24 1006.44 424.84 1005.08C424.42 1003.7 424.24 1002.3 424.3 1000.88C424.34 999.457 424.61 998.077 425.11 996.737C425.61 995.397 426.31 994.167 427.21 993.047C428.11 991.947 429.17 991.017 430.39 990.257C431.59 989.497 432.89 988.947 434.29 988.607C435.67 988.267 437.07 988.157 438.49 988.277C439.91 988.417 441.28 988.767 442.6 989.327C443.9 989.907 445.08 990.677 446.14 991.637C447.2 992.597 448.08 993.707 448.78 994.967C449.46 996.207 449.93 997.527 450.19 998.927C450.45 1000.33 450.48 1001.74 450.28 1003.16C450.08 1004.58 449.66 1005.93 449.02 1007.21C448.38 1008.47 447.55 1009.61 446.53 1010.63C445.51 1011.63 444.36 1012.44 443.08 1013.06C441.8 1013.68 440.45 1014.09 439.03 1014.29C437.61 1014.47 436.2 1014.42 434.8 1014.14C433.4 1013.86 432.08 1013.36 430.84 1012.64C429.6 1011.94 428.98 1011.59 428.98 1011.59C428.98 1011.59 427.44 1010.15 424.36 1007.27C421.26 1004.39 417.48 1001 413.02 997.097C408.56 993.197 403 988.537 396.34 983.117C389.7 977.717 386.03 974.607 385.33 973.787C384.65 972.987 384.07 972.117 383.59 971.177C383.09 970.217 382.72 969.227 382.48 968.207C382.24 967.167 382.13 966.127 382.15 965.087C382.17 964.027 382.31 962.977 382.57 961.937C382.83 960.917 383.22 959.937 383.74 958.997C384.24 958.057 384.85 957.197 385.57 956.417C386.29 955.637 387.09 954.947 387.97 954.347C388.85 953.767 389.79 953.287 390.79 952.907C391.79 952.547 392.81 952.317 393.85 952.217C394.89 952.097 395.94 952.107 397 952.247C398.04 952.387 399.06 952.647 400.06 953.027C401.04 953.427 401.97 953.937 402.85 954.557C403.71 955.157 404.14 955.457 404.14 955.457Z" fill="black"/>
<path d="M191.202 652.741C191.202 652.741 187.772 652.031 180.912 650.611C174.032 649.191 168.432 648.311 164.112 647.971C159.792 647.651 154.122 648.691 147.102 651.091C140.082 653.471 135.512 657.251 133.392 662.431C131.252 667.611 132.892 670.991 138.312 672.571C143.712 674.151 149.542 675.771 155.802 677.431C162.082 679.071 167.882 680.221 173.202 680.881C178.522 681.541 182.152 682.161 184.092 682.741C186.052 683.321 187.862 684.201 189.522 685.381C191.182 686.561 192.592 687.981 193.752 689.641C194.952 691.281 195.852 693.071 196.452 695.011C197.072 696.951 197.352 698.941 197.292 700.981C197.252 703.001 196.882 704.971 196.182 706.891C195.502 708.811 194.532 710.561 193.272 712.141C192.012 713.741 190.532 715.091 188.832 716.191C187.112 717.291 185.272 718.091 183.312 718.591C181.332 719.091 179.332 719.261 177.312 719.101C175.272 718.941 173.322 718.471 171.462 717.691C169.582 716.891 167.882 715.811 166.362 714.451C164.842 713.111 163.582 711.561 162.582 709.801C161.562 708.021 160.862 706.131 160.482 704.131C160.082 702.151 160.012 700.151 160.272 698.131C160.552 696.111 161.132 694.191 162.012 692.371C162.912 690.551 164.082 688.911 165.522 687.451C166.942 686.011 168.562 684.831 170.382 683.911C172.202 683.011 174.122 682.421 176.142 682.141C178.142 681.861 180.142 681.901 182.142 682.261C184.142 682.641 186.032 683.331 187.812 684.331C189.592 685.311 191.162 686.561 192.522 688.081C193.862 689.581 194.942 691.261 195.762 693.121C196.562 694.981 197.052 696.931 197.232 698.971C197.412 700.991 197.262 702.991 196.782 704.971C196.302 706.951 195.512 708.791 194.412 710.491C193.352 712.211 192.032 713.711 190.452 714.991C188.872 716.291 187.132 717.291 185.232 717.991C183.312 718.691 181.342 719.081 179.322 719.161C177.282 719.221 176.262 719.251 176.262 719.251C176.262 719.251 174.472 718.971 170.892 718.411C167.292 717.851 161.682 716.601 154.062 714.661C146.442 712.701 139.262 710.521 132.522 708.121C125.782 705.721 120.512 703.301 116.712 700.861C112.912 698.441 109.622 695.591 106.842 692.311C104.062 689.051 101.632 684.491 99.5524 678.631C97.4724 672.771 96.6924 667.651 97.2124 663.271C97.7124 658.891 98.8424 654.481 100.602 650.041C102.342 645.601 104.942 641.471 108.402 637.651C111.862 633.851 115.662 630.841 119.802 628.621C123.922 626.401 128.562 624.451 133.722 622.771C138.882 621.111 144.612 619.811 150.912 618.871C157.232 617.951 162.902 617.811 167.922 618.451C172.922 619.111 178.912 619.881 185.892 620.761C192.832 621.641 196.902 622.261 198.102 622.621C199.302 622.961 200.442 623.451 201.522 624.091C202.602 624.711 203.592 625.461 204.492 626.341C205.392 627.201 206.172 628.161 206.832 629.221C207.492 630.281 208.012 631.401 208.392 632.581C208.792 633.781 209.042 635.001 209.142 636.241C209.242 637.461 209.182 638.691 208.962 639.931C208.762 641.171 208.412 642.361 207.912 643.501C207.432 644.661 206.812 645.731 206.052 646.711C205.292 647.711 204.422 648.611 203.442 649.411C202.482 650.191 201.432 650.841 200.292 651.361C199.172 651.901 197.992 652.291 196.752 652.531C195.532 652.791 194.312 652.891 193.092 652.831C191.832 652.771 191.202 652.741 191.202 652.741Z" fill="black"/>
<path d="M410.988 287.578C410.988 287.578 411.048 288.638 411.168 290.758C411.288 292.878 410.918 294.898 410.058 296.818C409.178 298.758 407.898 300.388 406.218 301.708C404.558 303.028 402.678 303.878 400.578 304.258C398.518 304.638 396.468 304.508 394.428 303.868C392.408 303.248 390.648 302.178 389.148 300.658C387.628 299.158 386.558 297.398 385.938 295.378C385.298 293.338 385.168 291.288 385.548 289.228C385.948 287.128 386.798 285.248 388.098 283.588C389.418 281.908 391.048 280.628 392.988 279.748C394.928 278.888 396.948 278.518 399.048 278.638C401.168 278.778 403.138 279.398 404.958 280.498C406.778 281.598 408.238 283.048 409.338 284.848L410.988 287.578Z" fill="black"/>
<path d="M323.585 85.9366C323.585 85.9366 326.375 86.7966 331.955 88.5166C337.535 90.2366 344.455 91.9866 352.715 93.7666C360.975 95.5666 369.355 97.3166 377.855 99.0166C386.335 100.717 395.845 102.147 406.385 103.307C416.925 104.467 425.355 105.137 431.675 105.317C437.995 105.497 445.425 105.677 453.965 105.857C462.485 106.057 470.715 105.977 478.655 105.617C486.615 105.257 492.785 104.727 497.165 104.027C501.525 103.347 505.335 102.717 508.595 102.137C511.835 101.577 514.115 101.357 515.435 101.477C516.755 101.597 518.025 101.927 519.245 102.467C520.445 103.007 521.535 103.727 522.515 104.627C523.495 105.527 524.305 106.557 524.945 107.717C525.585 108.877 526.015 110.117 526.235 111.437C526.475 112.737 526.495 114.047 526.295 115.367C526.095 116.667 525.695 117.907 525.095 119.087C524.495 120.267 523.715 121.317 522.755 122.237C521.815 123.177 520.745 123.927 519.545 124.487C518.345 125.067 517.085 125.437 515.765 125.597C514.445 125.757 513.135 125.707 511.835 125.447C510.535 125.167 509.315 124.697 508.175 124.037C507.035 123.377 506.025 122.547 505.145 121.547C504.265 120.547 503.575 119.427 503.075 118.187C502.575 116.967 502.275 115.697 502.175 114.377C502.095 113.057 502.225 111.757 502.565 110.477C502.905 109.177 503.435 107.977 504.155 106.877C504.875 105.777 505.765 104.817 506.825 103.997C507.865 103.177 509.015 102.547 510.275 102.107C511.515 101.667 512.795 101.437 514.115 101.417C515.455 101.397 516.755 101.587 518.015 101.987C519.275 102.407 520.435 103.007 521.495 103.787C522.575 104.587 523.495 105.527 524.255 106.607C525.015 107.687 525.575 108.867 525.935 110.147C526.315 111.427 526.475 112.727 526.415 114.047C526.355 115.367 526.095 116.647 525.635 117.887C525.155 119.127 524.495 120.257 523.655 121.277C522.795 122.297 521.805 123.157 520.685 123.857C519.565 124.557 518.355 125.057 517.055 125.357C515.775 125.677 515.135 125.837 515.135 125.837C515.135 125.837 513.485 125.767 510.185 125.627C506.885 125.507 502.995 125.397 498.515 125.297C494.055 125.197 487.695 125.467 479.435 126.107C471.175 126.747 462.525 127.287 453.485 127.727C444.445 128.167 436.695 128.127 430.235 127.607C423.775 127.087 414.975 126.587 403.835 126.107C392.695 125.627 382.445 124.957 373.085 124.097C363.725 123.217 354.595 121.437 345.695 118.757C336.775 116.057 329.575 113.687 324.095 111.647C318.635 109.627 315.475 108.407 314.615 107.987C313.755 107.567 312.945 107.057 312.185 106.457C311.445 105.837 310.785 105.137 310.205 104.357C309.645 103.597 309.175 102.767 308.795 101.867C308.415 100.987 308.155 100.067 308.015 99.1066C307.855 98.1666 307.815 97.2266 307.895 96.2866C307.995 95.3266 308.195 94.3866 308.495 93.4666C308.795 92.5666 309.205 91.7066 309.725 90.8866C310.245 90.0866 310.855 89.3466 311.555 88.6666C312.255 88.0066 313.025 87.4366 313.865 86.9566C314.705 86.4766 315.585 86.1066 316.505 85.8466C317.425 85.5866 318.365 85.4366 319.325 85.3966C320.265 85.3766 321.215 85.4566 322.175 85.6366C323.115 85.8366 323.585 85.9366 323.585 85.9366Z" fill="black"/>
</svg>
